<?xml version="1.0" encoding="UTF-8"?>
<!DOCTYPE svg PUBLIC "-//W3C//DTD SVG 1.1//EN" "http://www.w3.org/Graphics/SVG/1.1/DTD/svg11.dtd">
<svg xmlns="http://www.w3.org/2000/svg" version="1.1" width="428px" height="450px" style="shape-rendering:geometricPrecision; text-rendering:geometricPrecision; image-rendering:optimizeQuality; fill-rule:evenodd; clip-rule:evenodd" xmlns:xlink="http://www.w3.org/1999/xlink">
<g><path style="opacity:0.996" fill="#fe8e00" d="M 427.5,202.5 C 427.5,217.167 427.5,231.833 427.5,246.5C 416.973,325.757 376.973,384.923 307.5,424C 280.764,437.419 252.431,445.419 222.5,448C 148.501,448.5 74.5008,448.667 0.5,448.5C 0.333341,399.499 0.500008,350.499 1,301.5C 26.8162,275.851 52.3162,250.185 77.5,224.5C 52.3162,198.815 26.8162,173.149 1,147.5C 0.500008,98.5011 0.333341,49.5011 0.5,0.5C 75.1674,0.333337 149.834,0.500003 224.5,1C 319.101,13.6183 383.268,64.4517 417,153.5C 421.387,169.764 424.887,186.097 427.5,202.5 Z M 195.5,107.5 C 196.239,107.369 196.906,107.536 197.5,108C 236.308,146.396 274.641,185.229 312.5,224.5C 274.222,263.955 235.555,302.955 196.5,341.5C 158.078,302.742 119.411,263.742 80.5,224.5C 119.517,185.489 157.85,146.489 195.5,107.5 Z"/></g>
</svg>
