<svg xmlns="http://www.w3.org/2000/svg" id="_ëîé_1" data-name="‘ëîé_1" viewBox="0 0 6000 3000"><defs><clipPath id="clip-path"><rect width="6000" height="3000" style="fill:#fee7e7;opacity:0"/></clipPath></defs><rect width="6000" height="3000" style="fill:#fee7e7;opacity:0"/><g style="clip-path:url(#clip-path)"><path d="M3000 1500h0c-215.92 448.33-431.85 896.65-441.69 1518.9-10.14 622 185.8 1417.9 786.55 2555.44H2655.13c-401-1222.33-460.38-2039.86-345.84-2651.29C2423.58 2311.31 2711.79 1905.66 3000 1500ZM3000 1500h0c117.91 219.1 235.82 438.2 386 649.34 149.87 211.23 332 414.5 570.69 603.85 238 189.52 532.48 365.12 891.47 524.83 358 160 780.46 304 1251.1 436.25-199.56 178.16-375.31 339.4-522 497.13-397.82-212.63-767.36-427.32-1079.29-646.2q-469.84-328.18-768.77-668.8c-200.79-227-345.87-458-457.9-691.42C3158.83 1971.6 3079.42 1735.8 3000 1500ZM3000 1500h0c492.57 68.14 987.65 130.1 1577.94-41.67 294.71-84.82 612.6-226.54 960.12-441q520.9-320.78 1131-860.53c75.06 169.54 162.24 330.61 264.09 490.05-999.58 696.28-1753.85 997.5-2367.75 1072.66C3950 1797 3475 1648.5 3000 1500ZM3000 1500h0c343.74-359.91 687.5-719.79 890.89-1305.73 204.86-583.57 269.35-1393.2 88.53-2597.89 249.46 130.26 484.25 258.9 706.92 379.06q-59.19 812.76-207.86 1405.86c-98.76 396.26-227.16 719.75-378.79 986.2C3797.48 903 3400 1204.58 3000 1500ZM3000 1500h0c-44.45-244.81-88.89-489.63-166.37-736.84-77.05-247.19-187.15-496.77-353-750.42q-247.43-380.37-663.87-773c-277-261.73-611.53-527.66-974.38-795.64 174.41-106.86 319.8-217.24 441.38-344.54C1639.18-1564.79 1946.4-1241 2189.12-933c243.73 308.18 423 600.47 545.69 878.85C2858.22 224.36 2925.13 489 2959.74 745.65 2994.69 1002.41 2997.35 1251.2 3000 1500ZM3000 1500h0c-448.33-215.92-896.65-431.85-1518.9-441.69-622-10.14-1417.9 185.8-2555.44 786.55V1155.13C148 754.13 965.51 694.75 1576.95 809.3 2188.69 923.58 2594.34 1211.79 3000 1500ZM3000 1500h0c-219.1 117.91-438.2 235.82-649.34 386-211.23 149.87-414.5 332-603.85 570.69-189.52 238-365.12 532.48-524.83 891.47-160 358-304 780.46-436.25 1251.1-178.16-199.56-339.4-375.31-497.13-522C501.22 3679.43 715.91 3309.89 934.79 2998q328.18-469.84 668.8-768.77c227-200.79 458-345.87 691.42-457.9C2528.4 1658.83 2764.2 1579.42 3000 1500Z" style="fill:#fff"/><path d="M3000 1500h0c-68.14 492.57-130.1 987.65 41.67 1577.94 84.82 294.71 226.54 612.6 441 960.12q320.78 520.9 860.53 1131c-169.54 75.06-330.61 162.24-490.05 264.09-696.28-999.58-997.5-1753.85-1072.66-2367.75C2703 2450 2851.5 1975 3000 1500ZM3000 1500h0c359.91 343.74 719.79 687.5 1305.73 890.89 583.57 204.86 1393.2 269.35 2597.89 88.53-130.26 249.46-258.9 484.25-379.06 706.92q-812.76-59.19-1405.86-207.86c-396.26-98.76-719.75-227.16-986.2-378.79C3597 2297.48 3295.42 1900 3000 1500ZM3000 1500h0c244.81-44.45 489.63-88.89 736.84-166.37 247.19-77.05 496.77-187.15 750.42-353q380.37-247.42 773-663.87C5522 39.83 5788-294.74 6055.94-657.58c106.86 174.41 217.24 319.8 344.54 441.38C6064.79 139.18 5741 446.4 5433 689.12c-308.18 243.73-600.47 423-878.85 545.69-278.54 123.41-543.17 190.32-799.84 224.94C3497.59 1494.7 3248.8 1497.35 3000 1500ZM3000 1500h0c215.92-448.33 431.85-896.65 441.69-1518.9 10.14-622-185.8-1417.9-786.55-2555.44h689.73C3745.87-1352 3805.25-534.49 3690.7 76.95 3576.42 688.69 3288.21 1094.34 3000 1500ZM3000 1500h0c-117.91-219.1-235.82-438.2-386-649.34-149.87-211.23-332-414.5-570.69-603.85C1805.29 57.29 1510.8-118.32 1151.81-278c-358-160-780.46-304-1251.1-436.25 199.56-178.16 375.31-339.4 522-497.13C820.57-998.78 1190.11-784.09 1502-565.21Q1971.89-237 2270.81 103.59c200.79 227 345.87 458 457.9 691.42C2841.17 1028.4 2920.58 1264.2 3000 1500ZM3000 1500h0c-492.57-68.14-987.65-130.1-1577.95 41.67-294.71 84.82-612.6 226.54-960.12 441q-520.9 320.78-1131 860.53c-75.06-169.54-162.24-330.61-264.08-490.05 999.58-696.28 1753.85-997.5 2367.75-1072.66C2050 1203 2525 1351.5 3000 1500Z" style="fill:#fff"/><path d="M3000 1500h0c-343.74 359.91-687.5 719.79-890.89 1305.73-204.86 583.57-269.35 1393.2-88.52 2597.89-249.46-130.26-484.25-258.9-706.92-379.06q59.19-812.76 207.86-1405.86c98.76-396.26 227.16-719.75 378.79-986.2C2202.52 2097 2600 1795.42 3000 1500ZM3000 1500h0c44.45 244.81 88.89 489.62 166.37 736.84 77.05 247.19 187.15 496.78 353 750.42q247.42 380.37 663.87 773c277 261.73 611.53 527.66 974.38 795.64-174.41 106.86-319.8 217.24-441.38 344.54C4360.82 4564.79 4053.6 4241 3810.88 3933c-243.73-308.18-423-600.47-545.69-878.85-123.41-278.54-190.32-543.17-224.94-799.84C3005.3 1997.59 3002.65 1748.8 3000 1500ZM3000 1500h0c448.33 215.92 896.65 431.85 1518.9 441.69 622 10.14 1417.9-185.8 2555.44-786.55v689.73c-1222.33 401-2039.86 460.38-2651.29 345.84C3811.31 2076.42 3405.66 1788.21 3000 1500ZM3000 1500h0c219.1-117.91 438.2-235.82 649.34-386 211.23-149.87 414.5-332 603.85-570.69 189.52-238 365.12-532.48 524.83-891.47 160-358 304-780.46 436.25-1251.1 178.16 199.56 339.4 375.31 497.13 522C5498.78-679.43 5284.09-309.89 5065.21 2Q4737 471.89 4396.41 770.81c-227 200.79-458 345.87-691.42 457.9C3471.6 1341.17 3235.8 1420.58 3000 1500ZM3000 1500h0c68.14-492.57 130.1-987.65-41.67-1577.94-84.82-294.71-226.54-612.6-441-960.12q-320.78-520.9-860.53-1131c169.54-75.06 330.61-162.24 490.05-264.09 696.28 999.58 997.5 1753.85 1072.66 2367.75C3297 550 3148.5 1025 3000 1500ZM3000 1500h0c-359.91-343.74-719.79-687.5-1305.73-890.89C1110.7 404.25 301.07 339.76-903.62 520.59-773.36 271.13-644.73 36.34-524.56-186.33Q288.2-127.14 881.3 21.52c396.26 98.76 719.75 227.16 986.2 378.79C2403 702.52 2704.58 1100 3000 1500ZM3000 1500h0c-244.81 44.45-489.63 88.89-736.84 166.37-247.18 77.05-496.77 187.15-750.42 353q-380.37 247.42-773 663.87C478 2960.17 212 3294.73-55.94 3657.58c-106.86-174.41-217.24-319.8-344.54-441.38C-64.79 2860.82 259 2553.6 567 2310.88c308.18-243.73 600.47-423 878.85-545.69 278.54-123.41 543.17-190.32 799.84-224.94C2502.41 1505.3 2751.2 1502.65 3000 1500Z" style="fill:#fff"/><path d="M3000 1500h0c-215.92 448.33-431.85 896.65-441.69 1518.9-10.14 622 185.8 1417.9 786.55 2555.44H2655.13c-401-1222.33-460.38-2039.86-345.84-2651.29C2423.58 2311.31 2711.79 1905.66 3000 1500ZM3000 1500h0c117.91 219.1 235.82 438.2 386 649.34 149.87 211.23 332 414.5 570.69 603.85 238 189.52 532.48 365.12 891.47 524.83 358 160 780.46 304 1251.1 436.25-199.56 178.16-375.31 339.4-522 497.13-397.82-212.63-767.36-427.32-1079.29-646.2q-469.84-328.18-768.77-668.8c-200.79-227-345.87-458-457.9-691.42C3158.83 1971.6 3079.42 1735.8 3000 1500ZM3000 1500h0c492.57 68.14 987.65 130.1 1577.94-41.67 294.71-84.82 612.6-226.54 960.12-441q520.9-320.78 1131-860.53c75.06 169.54 162.24 330.61 264.09 490.05-999.58 696.28-1753.85 997.5-2367.75 1072.66C3950 1797 3475 1648.5 3000 1500ZM3000 1500h0c343.74-359.91 687.5-719.79 890.89-1305.73 204.86-583.57 269.35-1393.2 88.53-2597.89 249.46 130.26 484.25 258.9 706.92 379.06q-59.19 812.76-207.86 1405.86c-98.76 396.26-227.16 719.75-378.79 986.2C3797.48 903 3400 1204.58 3000 1500ZM3000 1500h0c-44.45-244.81-88.89-489.63-166.37-736.84-77.05-247.19-187.15-496.77-353-750.42q-247.43-380.37-663.87-773c-277-261.73-611.53-527.66-974.38-795.64 174.41-106.86 319.8-217.24 441.38-344.54C1639.18-1564.79 1946.4-1241 2189.12-933c243.73 308.18 423 600.47 545.69 878.85C2858.22 224.36 2925.13 489 2959.74 745.65 2994.69 1002.41 2997.35 1251.2 3000 1500ZM3000 1500h0c-448.33-215.92-896.65-431.85-1518.9-441.69-622-10.14-1417.9 185.8-2555.44 786.55V1155.13C148 754.13 965.51 694.75 1576.95 809.3 2188.69 923.58 2594.34 1211.79 3000 1500ZM3000 1500h0c-219.1 117.91-438.2 235.82-649.34 386-211.23 149.87-414.5 332-603.85 570.69-189.52 238-365.12 532.48-524.83 891.47-160 358-304 780.46-436.25 1251.1-178.16-199.56-339.4-375.31-497.13-522C501.22 3679.43 715.91 3309.89 934.79 2998q328.18-469.84 668.8-768.77c227-200.79 458-345.87 691.42-457.9C2528.4 1658.83 2764.2 1579.42 3000 1500Z" style="fill:#fff"/><path d="M3000 1500h0c-68.14 492.57-130.1 987.65 41.67 1577.94 84.82 294.71 226.54 612.6 441 960.12q320.78 520.9 860.53 1131c-169.54 75.06-330.61 162.24-490.05 264.09-696.28-999.58-997.5-1753.85-1072.66-2367.75C2703 2450 2851.5 1975 3000 1500ZM3000 1500h0c359.91 343.74 719.79 687.5 1305.73 890.89 583.57 204.86 1393.2 269.35 2597.89 88.53-130.26 249.46-258.9 484.25-379.06 706.92q-812.76-59.19-1405.86-207.86c-396.26-98.76-719.75-227.16-986.2-378.79C3597 2297.48 3295.42 1900 3000 1500ZM3000 1500h0c244.81-44.45 489.63-88.89 736.84-166.37 247.19-77.05 496.77-187.15 750.42-353q380.37-247.42 773-663.87C5522 39.83 5788-294.74 6055.94-657.58c106.86 174.41 217.24 319.8 344.54 441.38C6064.79 139.18 5741 446.4 5433 689.12c-308.18 243.73-600.47 423-878.85 545.69-278.54 123.41-543.17 190.32-799.84 224.94C3497.59 1494.7 3248.8 1497.35 3000 1500ZM3000 1500h0c215.92-448.33 431.85-896.65 441.69-1518.9 10.14-622-185.8-1417.9-786.55-2555.44h689.73C3745.87-1352 3805.25-534.49 3690.7 76.95 3576.42 688.69 3288.21 1094.34 3000 1500ZM3000 1500h0c-117.91-219.1-235.82-438.2-386-649.34-149.87-211.23-332-414.5-570.69-603.85C1805.29 57.29 1510.8-118.32 1151.81-278c-358-160-780.46-304-1251.1-436.25 199.56-178.16 375.31-339.4 522-497.13C820.57-998.78 1190.11-784.09 1502-565.21Q1971.89-237 2270.81 103.59c200.79 227 345.87 458 457.9 691.42C2841.17 1028.4 2920.58 1264.2 3000 1500ZM3000 1500h0c-492.57-68.14-987.65-130.1-1577.95 41.67-294.71 84.82-612.6 226.54-960.12 441q-520.9 320.78-1131 860.53c-75.06-169.54-162.24-330.61-264.08-490.05 999.58-696.28 1753.85-997.5 2367.75-1072.66C2050 1203 2525 1351.5 3000 1500Z" style="fill:#fff"/><path d="M3000 1500h0c-343.74 359.91-687.5 719.79-890.89 1305.73-204.86 583.57-269.35 1393.2-88.52 2597.89-249.46-130.26-484.25-258.9-706.92-379.06q59.19-812.76 207.86-1405.86c98.76-396.26 227.16-719.75 378.79-986.2C2202.52 2097 2600 1795.42 3000 1500ZM3000 1500h0c44.45 244.81 88.89 489.62 166.37 736.84 77.05 247.19 187.15 496.78 353 750.42q247.42 380.37 663.87 773c277 261.73 611.53 527.66 974.38 795.64-174.41 106.86-319.8 217.24-441.38 344.54C4360.82 4564.79 4053.6 4241 3810.88 3933c-243.73-308.18-423-600.47-545.69-878.85-123.41-278.54-190.32-543.17-224.94-799.84C3005.3 1997.59 3002.65 1748.8 3000 1500ZM3000 1500h0c448.33 215.92 896.65 431.85 1518.9 441.69 622 10.14 1417.9-185.8 2555.44-786.55v689.73c-1222.33 401-2039.86 460.38-2651.29 345.84C3811.31 2076.42 3405.66 1788.21 3000 1500ZM3000 1500h0c219.1-117.91 438.2-235.82 649.34-386 211.23-149.87 414.5-332 603.85-570.69 189.52-238 365.12-532.48 524.83-891.47 160-358 304-780.46 436.25-1251.1 178.16 199.56 339.4 375.31 497.13 522C5498.78-679.43 5284.09-309.89 5065.21 2Q4737 471.89 4396.41 770.81c-227 200.79-458 345.87-691.42 457.9C3471.6 1341.17 3235.8 1420.58 3000 1500ZM3000 1500h0c68.14-492.57 130.1-987.65-41.67-1577.94-84.82-294.71-226.54-612.6-441-960.12q-320.78-520.9-860.53-1131c169.54-75.06 330.61-162.24 490.05-264.09 696.28 999.58 997.5 1753.85 1072.66 2367.75C3297 550 3148.5 1025 3000 1500ZM3000 1500h0c-359.91-343.74-719.79-687.5-1305.73-890.89C1110.7 404.25 301.07 339.76-903.62 520.59-773.36 271.13-644.73 36.34-524.56-186.33Q288.2-127.14 881.3 21.52c396.26 98.76 719.75 227.16 986.2 378.79C2403 702.52 2704.58 1100 3000 1500ZM3000 1500h0c-244.81 44.45-489.63 88.89-736.84 166.37-247.18 77.05-496.77 187.15-750.42 353q-380.37 247.42-773 663.87C478 2960.17 212 3294.73-55.94 3657.58c-106.86-174.41-217.24-319.8-344.54-441.38C-64.79 2860.82 259 2553.6 567 2310.88c308.18-243.73 600.47-423 878.85-545.69 278.54-123.41 543.17-190.32 799.84-224.94C2502.41 1505.3 2751.2 1502.65 3000 1500Z" style="fill:#fff"/><path d="M3000 1500h0c-215.92 448.33-431.85 896.65-441.69 1518.9-10.14 622 185.8 1417.9 786.55 2555.44H2655.13c-401-1222.33-460.38-2039.86-345.84-2651.29C2423.58 2311.31 2711.79 1905.66 3000 1500ZM3000 1500h0c117.91 219.1 235.82 438.2 386 649.34 149.87 211.23 332 414.5 570.69 603.85 238 189.52 532.48 365.12 891.47 524.83 358 160 780.46 304 1251.1 436.25-199.56 178.16-375.31 339.4-522 497.13-397.82-212.63-767.36-427.32-1079.29-646.2q-469.84-328.18-768.77-668.8c-200.79-227-345.87-458-457.9-691.42C3158.83 1971.6 3079.42 1735.8 3000 1500ZM3000 1500h0c492.57 68.14 987.65 130.1 1577.94-41.67 294.71-84.82 612.6-226.54 960.12-441q520.9-320.78 1131-860.53c75.06 169.54 162.24 330.61 264.09 490.05-999.58 696.28-1753.85 997.5-2367.75 1072.66C3950 1797 3475 1648.5 3000 1500ZM3000 1500h0c343.74-359.91 687.5-719.79 890.89-1305.73 204.86-583.57 269.35-1393.2 88.53-2597.89 249.46 130.26 484.25 258.9 706.92 379.06q-59.19 812.76-207.86 1405.86c-98.76 396.26-227.16 719.75-378.79 986.2C3797.48 903 3400 1204.58 3000 1500ZM3000 1500h0c-44.45-244.81-88.89-489.63-166.37-736.84-77.05-247.19-187.15-496.77-353-750.42q-247.43-380.37-663.87-773c-277-261.73-611.53-527.66-974.38-795.64 174.41-106.86 319.8-217.24 441.38-344.54C1639.18-1564.79 1946.4-1241 2189.12-933c243.73 308.18 423 600.47 545.69 878.85C2858.22 224.36 2925.13 489 2959.74 745.65 2994.69 1002.41 2997.35 1251.2 3000 1500ZM3000 1500h0c-448.33-215.92-896.65-431.85-1518.9-441.69-622-10.14-1417.9 185.8-2555.44 786.55V1155.13C148 754.13 965.51 694.75 1576.95 809.3 2188.69 923.58 2594.34 1211.79 3000 1500ZM3000 1500h0c-219.1 117.91-438.2 235.82-649.34 386-211.23 149.87-414.5 332-603.85 570.69-189.52 238-365.12 532.48-524.83 891.47-160 358-304 780.46-436.25 1251.1-178.16-199.56-339.4-375.31-497.13-522C501.22 3679.43 715.91 3309.89 934.79 2998q328.18-469.84 668.8-768.77c227-200.79 458-345.87 691.42-457.9C2528.4 1658.83 2764.2 1579.42 3000 1500Z" style="fill:#fff"/><path d="M3000 1500h0c-68.14 492.57-130.1 987.65 41.67 1577.94 84.82 294.71 226.54 612.6 441 960.12q320.78 520.9 860.53 1131c-169.54 75.06-330.61 162.24-490.05 264.09-696.28-999.58-997.5-1753.85-1072.66-2367.75C2703 2450 2851.5 1975 3000 1500ZM3000 1500h0c359.91 343.74 719.79 687.5 1305.73 890.89 583.57 204.86 1393.2 269.35 2597.89 88.53-130.26 249.46-258.9 484.25-379.06 706.92q-812.76-59.19-1405.86-207.86c-396.26-98.76-719.75-227.16-986.2-378.79C3597 2297.48 3295.42 1900 3000 1500ZM3000 1500h0c244.81-44.45 489.63-88.89 736.84-166.37 247.19-77.05 496.77-187.15 750.42-353q380.37-247.42 773-663.87C5522 39.83 5788-294.74 6055.94-657.58c106.86 174.41 217.24 319.8 344.54 441.38C6064.79 139.18 5741 446.4 5433 689.12c-308.18 243.73-600.47 423-878.85 545.69-278.54 123.41-543.17 190.32-799.84 224.94C3497.59 1494.7 3248.8 1497.35 3000 1500ZM3000 1500h0c215.92-448.33 431.85-896.65 441.69-1518.9 10.14-622-185.8-1417.9-786.55-2555.44h689.73C3745.87-1352 3805.25-534.49 3690.7 76.95 3576.42 688.69 3288.21 1094.34 3000 1500Z" style="fill:#fff"/></g></svg>