<svg xmlns="http://www.w3.org/2000/svg" xmlns:xlink="http://www.w3.org/1999/xlink" viewBox="0 0 729 640"><defs><clipPath id="clip-path"><rect width="960" height="640" style="fill:none"/></clipPath><radialGradient id="radial-gradient" cx="238.43" cy="46.56" r="29.46" gradientTransform="rotate(40.21 -211.147 -40.262) scale(1.45)" gradientUnits="userSpaceOnUse"><stop offset="0" stop-color="#ffd299"/><stop offset="1" stop-color="#ff9e59"/></radialGradient><radialGradient xlink:href="#radial-gradient" id="radial-gradient-2" cx="202.36" cy="45.03" r="31.83"/><radialGradient id="radial-gradient-3" cx="86.53" cy="276.3" r="52.84" gradientTransform="matrix(1.4 .35 -.35 1.4 49.19 -25.7)" gradientUnits="userSpaceOnUse"><stop offset="0" stop-color="#ff8ca8"/><stop offset="1" stop-color="#cc3359"/></radialGradient><radialGradient xlink:href="#radial-gradient-3" id="radial-gradient-4" cx="239.43" cy="-204.69" r="52.84" gradientTransform="matrix(.51 1.35 -1.35 .51 -278.37 212.21)"/><radialGradient xlink:href="#radial-gradient-3" id="radial-gradient-5" cx="217.01" cy="68.06" r="52.84" gradientTransform="rotate(40.21 -211.147 -40.262) scale(1.45)"/><radialGradient xlink:href="#radial-gradient" id="radial-gradient-6" cx="201.73" cy="44.69" r="6.7" gradientTransform="matrix(0 1.45 -1.45 0 171.2 73.96)"/><radialGradient xlink:href="#radial-gradient" id="radial-gradient-7" cx="237.88" cy="44.69" r="6.7" gradientTransform="rotate(90 77.88 133.29) scale(1.45)"/><radialGradient xlink:href="#radial-gradient-3" id="radial-gradient-8" cx="-938.83" cy="865.41" r="73.37" gradientTransform="matrix(-1.09 .95 .95 1.09 -1872.31 507.38)"/><radialGradient xlink:href="#radial-gradient-3" id="radial-gradient-9" cx="148.38" cy="964.3" r="73.38" gradientTransform="matrix(.16 1.44 1.44 -.16 -1472.13 570.72)"/><radialGradient xlink:href="#radial-gradient-3" id="radial-gradient-10" cx="-437.31" cy="1045.06" r="73.38" gradientTransform="matrix(-.56 1.34 1.34 .56 -1691.24 585.22)"/><radialGradient id="radial-gradient-11" cx="-320.66" cy="248.1" r="158.15" gradientTransform="matrix(-.77 -.64 -.64 .77 56.44 -170.39)" gradientUnits="userSpaceOnUse"><stop offset="0" stop-color="#d2f2c2"/><stop offset="1" stop-color="#4ba64b"/></radialGradient><radialGradient xlink:href="#radial-gradient-11" id="radial-gradient-12" cx="-659.48" cy="1097.37" r="155.66" gradientTransform="matrix(-.98 .22 .22 .98 -886.13 -565.44)"/><radialGradient xlink:href="#radial-gradient-11" id="radial-gradient-13" cx="1147.86" cy="911.18" r="155.67" gradientTransform="rotate(5.24 5445.705 -10960.606)"/><radialGradient xlink:href="#radial-gradient-11" id="radial-gradient-14" cx="769.4" cy="1132.92" r="158.15" gradientTransform="rotate(-39.78 -592.432 901.42)"/><radialGradient xlink:href="#radial-gradient-11" id="radial-gradient-15" cx="706.54" cy="773.09" r="155.66" gradientTransform="rotate(12.64 2667.001 749.52)"/><radialGradient xlink:href="#radial-gradient-11" id="radial-gradient-16" cx="-251.82" cy="1021.89" r="155.67" gradientTransform="matrix(-1 .09 .09 1 320.77 -543.15)"/><radialGradient xlink:href="#radial-gradient-11" id="radial-gradient-17" cx="17.8" cy="827.92" r="187.59" gradientTransform="matrix(-.87 -.49 -.49 .87 1025.83 -25.58)"/><radialGradient xlink:href="#radial-gradient" id="radial-gradient-18" cx="386.49" cy="122.23" r="38.09"/><radialGradient xlink:href="#radial-gradient" id="radial-gradient-19" cx="339.85" cy="120.26" r="41.16"/><radialGradient xlink:href="#radial-gradient-3" id="radial-gradient-20" cx="171.92" cy="411.18" r="68.32"/><radialGradient xlink:href="#radial-gradient-3" id="radial-gradient-21" cx="358.79" cy="150.03" r="68.32" gradientTransform="rotate(40.21 -211.147 -40.262) scale(1.45)"/><radialGradient xlink:href="#radial-gradient" id="radial-gradient-22" cx="339.04" cy="119.81" r="8.66" gradientTransform="matrix(0 1.45 -1.45 0 361.91 86.95)"/><radialGradient xlink:href="#radial-gradient" id="radial-gradient-23" cx="385.78" cy="119.81" r="8.66" gradientTransform="matrix(0 1.45 -1.45 0 413.6 62.96)"/><radialGradient xlink:href="#radial-gradient" id="radial-gradient-24" cx="-522.81" cy="644.58" r="28.64" gradientTransform="matrix(-1.16 .87 .87 1.16 -559.4 87.44)"/><radialGradient xlink:href="#radial-gradient" id="radial-gradient-25" cx="-557.88" cy="643.09" r="30.95" gradientTransform="matrix(-1.16 .87 .87 1.16 -559.4 87.44)"/><radialGradient xlink:href="#radial-gradient-3" id="radial-gradient-26" cx="-858.88" cy="479.79" r="51.37" gradientTransform="matrix(-1.42 .27 .27 1.42 -675.51 -72.63)"/><radialGradient xlink:href="#radial-gradient-3" id="radial-gradient-27" cx="-137.25" cy="686.28" r="51.36" gradientTransform="matrix(-.6 1.32 1.32 .6 -362.09 185.86)"/><radialGradient xlink:href="#radial-gradient-3" id="radial-gradient-28" cx="-543.63" cy="665.48" r="51.36" gradientTransform="matrix(-1.16 .87 .87 1.16 -559.4 87.44)"/><radialGradient xlink:href="#radial-gradient" id="radial-gradient-29" cx="-558.49" cy="642.76" r="6.51" gradientTransform="matrix(-1.45 0 0 1.45 -162.14 -580.96)"/><radialGradient xlink:href="#radial-gradient" id="radial-gradient-30" cx="-523.35" cy="642.76" r="6.51" gradientTransform="matrix(-1.45 0 0 1.45 -152.04 -550.54)"/><radialGradient xlink:href="#radial-gradient-3" id="radial-gradient-31" cx="-203.41" cy="240.73" r="66.89" gradientTransform="matrix(1.14 .9 -.9 1.14 1205.94 457.63)"/><radialGradient xlink:href="#radial-gradient-3" id="radial-gradient-32" cx="53.68" cy="5.8" r="66.89" gradientTransform="rotate(93.4 149.582 651.283) scale(1.45)"/><radialGradient xlink:href="#radial-gradient-3" id="radial-gradient-33" cx="-53.64" cy="161.29" r="66.89" gradientTransform="matrix(.63 1.31 -1.31 .63 1028.75 545.51)"/><radialGradient xlink:href="#radial-gradient" id="radial-gradient-34" cx="-319.59" cy="784.11" r="41.37" gradientTransform="matrix(-.93 1.11 1.11 .93 -669.59 230.39)"/><radialGradient xlink:href="#radial-gradient" id="radial-gradient-35" cx="-370.24" cy="781.97" r="44.71" gradientTransform="matrix(-.93 1.11 1.11 .93 -669.59 230.39)"/><radialGradient xlink:href="#radial-gradient-3" id="radial-gradient-36" cx="-759.21" cy="697.08" r="74.21" gradientTransform="matrix(-1.32 .58 .58 1.32 -819.46 101.17)"/><radialGradient xlink:href="#radial-gradient-3" id="radial-gradient-37" cx="116.74" cy="720.07" r="75.99" gradientTransform="matrix(-.28 1.42 1.42 .28 -456.26 281.44)"/><radialGradient xlink:href="#radial-gradient-3" id="radial-gradient-38" cx="-349.66" cy="814.31" r="74.21" gradientTransform="matrix(-.93 1.11 1.11 .93 -669.59 230.39)"/><radialGradient xlink:href="#radial-gradient" id="radial-gradient-39" cx="-371.12" cy="781.48" r="9.4" gradientTransform="matrix(-1.45 0 0 1.45 6.7 -582.41)"/><radialGradient xlink:href="#radial-gradient" id="radial-gradient-40" cx="-320.36" cy="781.48" r="9.4" gradientTransform="matrix(-1.45 0 0 1.45 32.8 -526.23)"/></defs><g style="isolation:isolate"><g id="EFFECT" style="clip-path:url(#clip-path)"><path d="M99.57,446.11c4-23.74,25.15-42.51,44.59-47.49l0.79,3.53C126.58,405.82,104.78,422.72,99.57,446.11Z" style="fill:url(#radial-gradient)"/><path d="M116,416.67c4.62-5.91,12.35-11.91,19.91-13.36C126.5,407.73,121.09,412.75,116,416.67Z" style="mix-blend-mode:screen;fill:gray"/><path d="M67,418.56c22.1-9,35.24-33.24,35.8-52.06l3.61,0.19C104.71,386.68,89.74,410.69,67,418.56Z" style="fill:url(#radial-gradient-2)"/><path d="M103.08,374.28c0.57,7.07-4.59,17.25-9.48,22.57C96.12,392.27,101.8,382.21,103.08,374.28Z" style="mix-blend-mode:screen;fill:gray"/><path d="M90.57,422.43C84.74,445.5,60.5,459.28,60.5,459.28s-14.78-23.64-8.95-46.71c4.49-17.76,19.88-30,26.73-34.71a3.61,3.61,0,0,1,5.26,1.33C87.34,386.59,95.06,404.67,90.57,422.43Z" style="fill:url(#radial-gradient-3)"/><ellipse cx="53.91" cy="418.42" rx="2.56" ry=".53" transform="rotate(-88.89 53.906 418.41)" style="mix-blend-mode:multiply;fill:#e6cfd5"/><path d="M83.55,379.19a3.61,3.61,0,0,0-5.26-1.33c-6.85,4.7-22.24,17-26.73,34.71-5.83,23.07,8.95,46.71,8.95,46.71s24.24-13.77,30.07-36.85C95.06,404.67,87.34,386.59,83.55,379.19ZM55.78,439.72c-2-5.48-5.43-16.15-1.64-28.54,4.08-13.35,11.92-21.31,20.08-28.1,5.25-4.37,7.08-3.66,8.75,1.67,2.07,6.58,5.15,20.19,1.2,34.88A51.7,51.7,0,0,1,70.64,443C64.65,448.88,58.56,447.18,55.78,439.72Z" style="mix-blend-mode:multiply;fill:#e6cfd5"/><path d="M74.23,384.57c-3.43,2.66-13.44,12-17.16,22.06a37.77,37.77,0,0,0,.54,26.43c2.25,5.81,7.27,7.41,11.23,3.2,4.78-5.06,9.88-10.88,12.29-22.23a70.45,70.45,0,0,0,.79-27.22C81.23,382.21,78.35,381.37,74.23,384.57Z" style="mix-blend-mode:overlay;fill:#8c8c8c"/><g style="mix-blend-mode:screen"><ellipse cx="71.64" cy="391.13" rx="8.53" ry="2.28" transform="rotate(-45.81 71.657 391.139)" style="fill:#8c8c8c"/></g><ellipse cx="76.01" cy="433.14" rx="3.99" ry=".98" transform="rotate(-58 77.433 433.663)" style="mix-blend-mode:multiply;fill:#e6cfd5"/><path d="M68.61,427.19c-7.28,1.43-17.48-2.74-17.92-10.3h0a57.69,57.69,0,0,0,1.88,23.53h0C51,433.24,90.85,418.23,87.42,431a45.26,45.26,0,0,0,3.15-8.58,46.58,46.58,0,0,0,1.36-12.17C90.87,418.23,77.25,425.49,68.61,427.19Z" style="mix-blend-mode:overlay;fill:#8c8c8c"/><path d="M107.93,462.79c-22.25,8.45-47.43-3.52-47.43-3.52s10.89-25.66,33.14-34.11c17.12-6.5,36-.91,43.76,2a3.61,3.61,0,0,1,1.93,5.07C135.45,439.6,125.05,456.29,107.93,462.79Z" style="fill:url(#radial-gradient-4)"/><path d="M139.33,432.25a3.61,3.61,0,0,0-1.93-5.07c-7.78-2.92-26.64-8.51-43.76-2-22.25,8.45-33.14,34.11-33.14,34.11s25.18,12,47.43,3.52C125.05,456.29,135.45,439.6,139.33,432.25ZM73.82,444.2c3.32-4.82,10.12-13.7,22.45-17.71,13.27-4.31,24.29-2.45,34.54.34,6.59,1.8,7.05,3.7,3.65,8.12-4.21,5.47-13.59,15.79-27.89,21a51.7,51.7,0,0,1-26.92,2.32C71.4,456.72,69.3,450.75,73.82,444.2Z" style="mix-blend-mode:multiply;fill:#e6cfd5"/><path d="M129.58,427.7c-4.15-1.28-17.51-4.15-27.91-1.41a37.77,37.77,0,0,0-21.34,15.6c-3.47,5.18-1.9,10.2,3.82,11,6.88,1,14.58,1.85,25.26-2.67a70.45,70.45,0,0,0,22.76-15C135.53,432.08,134.57,429.24,129.58,427.7Z" style="mix-blend-mode:overlay;fill:#8c8c8c"/><g style="mix-blend-mode:screen"><ellipse cx="122.26" cy="429.12" rx="2.08" ry="6.71" transform="rotate(-80.79 122.262 429.116)" style="fill:#595959;mix-blend-mode:overlay"/></g><ellipse cx="112.43" cy="451.44" rx="3.99" ry=".98" transform="rotate(-28.22 112.427 451.432)" style="mix-blend-mode:multiply;fill:#e6cfd5"/><path d="M91.44,447.53c-5.35-5.14-7.78-15.89-1.84-20.58h0A57.69,57.69,0,0,0,71.4,442h0c5-5.42,40.13,18.65,27.69,23.16a45.25,45.25,0,0,0,8.84-2.34,46.58,46.58,0,0,0,10.75-5.87C111.54,460.63,97.79,453.63,91.44,447.53Z" style="mix-blend-mode:overlay;fill:#8c8c8c"/><path d="M103.69,439.36C88.32,457.53,60.5,459.28,60.5,459.28S57.59,431.55,73,413.38c11.82-14,31-18.24,39.25-19.46a3.61,3.61,0,0,1,4.14,3.5C116.51,405.73,115.51,425.37,103.69,439.36Z" style="fill:url(#radial-gradient-5)"/><path d="M116.35,397.42a3.61,3.61,0,0,0-4.14-3.5C104,395.13,84.78,399.39,73,413.38c-15.36,18.18-12.45,45.9-12.45,45.9s27.82-1.74,43.19-19.92C115.51,425.37,116.51,405.73,116.35,397.42ZM64.84,439.63c0.57-5.82,2.21-16.89,11-26.37,9.52-10.21,20.06-13.92,30.38-16.44,6.64-1.62,8-.18,7.13,5.34-1,6.82-4.23,20.4-14.22,31.88a51.7,51.7,0,0,1-22.42,15.08C68.79,451.75,64.06,447.55,64.84,439.63Z" style="mix-blend-mode:multiply;fill:#e6cfd5"/><path d="M105.61,398.17c-4.25.89-17.32,4.86-25.09,12.3a37.77,37.77,0,0,0-11.11,24c-0.53,6.21,3.28,9.84,8.69,7.81,6.51-2.45,13.65-5.45,20.8-14.58a70.45,70.45,0,0,0,12.66-24.12C112.94,399.12,110.72,397.1,105.61,398.17Z" style="mix-blend-mode:overlay;fill:#8c8c8c"/><g style="mix-blend-mode:screen"><ellipse cx="99.89" cy="402.96" rx="6.71" ry="2.08" transform="rotate(-19.79 99.894 402.954)" style="fill:#8c8c8c"/><ellipse cx="87.69" cy="407.93" rx="3.74" ry="1.46" transform="rotate(-32.4 87.677 407.91)" style="fill:#8c8c8c"/></g><ellipse cx="85.91" cy="442.59" rx="3.99" ry=".98" transform="rotate(-32.2 85.894 442.563)" style="mix-blend-mode:multiply;fill:#e6cfd5"/><path d="M81.87,434c-7.17-1.9-14.5-10.13-11.59-17.11h0a57.69,57.69,0,0,0-8.64,22h0c1.73-7.15,44.14-3.15,35.45,6.83a45.25,45.25,0,0,0,6.59-6.33A46.58,46.58,0,0,0,110.25,429C105.8,435.71,90.38,436.26,81.87,434Z" style="mix-blend-mode:overlay;fill:#8c8c8c"/><circle cx="104.58" cy="366.6" r="6.83" transform="rotate(-49.79 104.579 366.596)" style="fill:url(#radial-gradient-6)"/><path d="M109,361.38a6.83,6.83,0,1,0,.81,9.63A6.83,6.83,0,0,0,109,361.38Zm-7.74,7.93a5,5,0,1,1,7.06-.59A5,5,0,0,1,101.25,369.31Z" style="mix-blend-mode:multiply;fill:#e6cfd5"/><circle cx="104.5" cy="364.2" r="3.43" transform="rotate(-49.79 104.487 364.197)" style="mix-blend-mode:overlay;fill:#8c8c8c"/><circle cx="104.38" cy="362.86" r="1.78" transform="rotate(-49.79 104.379 362.85)" style="fill:#8c8c8c;mix-blend-mode:screen"/><ellipse cx="106.65" cy="369.34" rx=".98" ry=".31" transform="rotate(-28.23 106.653 369.347)" style="mix-blend-mode:multiply;fill:#e6cfd5"/><path d="M110.1,362.58c0.52,1.32-3.13,3.43-5,4s-6.94,1-7.18-1.45a6.83,6.83,0,0,0,3.3,7.46c-2.62-3.16,8.47-9.07,10.18-5.59A6.83,6.83,0,0,0,110.1,362.58Z" style="mix-blend-mode:overlay;fill:#8c8c8c"/><circle cx="144.55" cy="400.39" r="6.83" transform="rotate(-49.79 144.548 400.387)" style="fill:url(#radial-gradient-7)"/><path d="M149,395.17a6.83,6.83,0,1,0,.81,9.63A6.83,6.83,0,0,0,149,395.17Zm-7.74,7.93a5,5,0,1,1,7.06-.59A5,5,0,0,1,141.23,403.11Z" style="mix-blend-mode:multiply;fill:#e6cfd5"/><circle cx="144.47" cy="397.99" r="3.43" transform="rotate(-49.79 144.468 397.993)" style="mix-blend-mode:overlay;fill:#8c8c8c"/><circle cx="144.36" cy="396.65" r="1.78" transform="rotate(-49.79 144.354 396.657)" style="fill:#8c8c8c;mix-blend-mode:screen"/><ellipse cx="143.01" cy="403.46" rx=".31" ry=".98" transform="rotate(-70.87 143.003 403.449)" style="mix-blend-mode:multiply;fill:#e6cfd5"/><path d="M150.08,396.37c0.52,1.32-3.13,3.43-5,4s-6.94,1-7.18-1.45a6.83,6.83,0,0,0,3.3,7.46c-2.62-3.16,8.47-9.07,10.18-5.59A6.83,6.83,0,0,0,150.08,396.37Z" style="mix-blend-mode:overlay;fill:#8c8c8c"/><path d="M-27.47,602.47C-5.7,627.33,33,629.08,33,629.08s3.37-38.57-18.4-63.43c-16.75-19.13-43.52-24.58-55-26.07a5,5,0,0,0-5.67,5C-46.09,556.08-44.23,583.33-27.47,602.47Z" style="fill:url(#radial-gradient-8)"/><ellipse cx="15.35" cy="574.38" rx=".73" ry="3.56" transform="rotate(-28.13 15.345 574.375)" style="mix-blend-mode:multiply;fill:#e6cfd5"/><path d="M-27.47,602.47C-5.7,627.33,33,629.08,33,629.08s3.37-38.57-18.4-63.43c-16.75-19.13-43.52-24.58-55-26.07a5,5,0,0,0-5.67,5C-46.09,556.08-44.23,583.33-27.47,602.47Zm37.64,12.89A71.8,71.8,0,0,1-21.33,595C-35.48,579.26-40.25,560.48-41.85,551c-1.29-7.64.52-9.67,9.77-7.58,14.39,3.25,29.11,8.16,42.57,22.1,12.5,12.95,15,28.28,16,36.35C27.75,612.89,21.27,618.84,10.16,615.35Z" style="mix-blend-mode:multiply;fill:#e6cfd5"/><path d="M-31.14,545.32C-25.21,546.45-7,551.64,4,561.79s15,23.4,16,33c0.89,8.61-4.32,13.75-11.88,11C-1,602.63-11,598.65-21.11,586.13c-12-14.74-16-26.68-18.16-33.18C-41.29,546.82-38.26,544-31.14,545.32Z" style="mix-blend-mode:overlay;fill:#8c8c8c"/><ellipse cx="-2.71" cy="606.53" rx="1.36" ry="5.54" transform="rotate(-58.8 -2.738 606.49)" style="mix-blend-mode:multiply;fill:#e6cfd5"/><path d="M2.69,594.5c9.91-2.82,19.89-14.41,15.67-24h0c6.79,9.56,10.51,20.49,12.53,30.3h0c-2.57-9.89-61.36-3.3-49.06,10.34a62.84,62.84,0,0,1-9.31-8.63,64.68,64.68,0,0,1-9.36-14.2C-30.5,597.46-9.07,597.84,2.69,594.5Z" style="mix-blend-mode:overlay;fill:#8c8c8c"/><path d="M-23.49,663.35C9.37,659.76,33,629.08,33,629.08S3.31,604.21-29.55,607.79c-25.28,2.76-45.09,21.56-52.87,30.09a5,5,0,0,0,.82,7.49C-72.17,652-48.77,666.11-23.49,663.35Z" style="fill:url(#radial-gradient-9)"/><path d="M-23.49,663.35C9.37,659.76,33,629.08,33,629.08S3.31,604.21-29.55,607.79c-25.28,2.76-45.09,21.56-52.87,30.09a5,5,0,0,0,.82,7.49C-72.17,652-48.77,666.11-23.49,663.35ZM8.65,639.9A71.8,71.8,0,0,1-26.12,654c-21,2.6-39.09-4.26-47.75-8.37-7-3.32-7.63-6-.61-12.35,10.91-9.93,23.37-19.18,42.52-22.21C-14.19,608.26-.17,615,7,618.82,16.71,624.08,17.87,632.79,8.65,639.9Z" style="mix-blend-mode:multiply;fill:#e6cfd5"/><path d="M-72.41,633.59c4.32-4.2,19-16.18,33.64-19.35s27.78,1.12,36.24,5.83C5,624.29,6.26,631.49-.29,636.14c-7.88,5.6-16.87,11.49-32.94,12.63-18.93,1.34-31-2.18-37.59-4.15C-77,642.77-77.61,638.65-72.41,633.59Z" style="mix-blend-mode:overlay;fill:#8c8c8c"/><path d="M-12.72,634.06c3.37-9.73-.4-24.56-10.71-26.63h0c11.73-.09,22.81,3.13,32,7.11h0C-1,611-29.31,662.93-11.08,660.67a62.83,62.83,0,0,1-12.41,2.68,64.68,64.68,0,0,1-17-.48C-29.32,663-16.72,645.62-12.72,634.06Z" style="mix-blend-mode:overlay;fill:#8c8c8c"/><path d="M-33,631.68c30.47,12.79,66-2.6,66-2.6s-13.89-36.14-44.36-48.93c-23.45-9.84-49.89-3-60.83.68a5,5,0,0,0-2.92,7C-70.1,598.17-56.47,621.84-33,631.68Z" style="fill:url(#radial-gradient-10)"/><path d="M-33,631.68c30.47,12.79,66-2.6,66-2.6s-13.89-36.14-44.36-48.93c-23.45-9.84-49.89-3-60.83.68a5,5,0,0,0-2.92,7C-70.1,598.17-56.47,621.84-33,631.68Zm39.47-4.93a71.8,71.8,0,0,1-37.25-4.52c-19.6-7.89-32.12-22.68-37.7-30.47-4.51-6.3-3.78-8.92,5.45-11.1,14.36-3.39,29.74-5.44,48,1.18,16.91,6.15,25.92,18.81,30.3,25.66C21.17,616.82,18,625,6.45,626.75Z" style="mix-blend-mode:multiply;fill:#e6cfd5"/><path d="M-61.38,581.94c5.82-1.58,24.49-4.92,38.8-.62S1.17,595.76,6.29,604c4.57,7.35,2.15,14.25-5.83,15.14-9.6,1.07-20.32,1.87-34.93-4.92-17.21-8-26.09-16.95-30.87-21.85C-69.85,587.74-68.39,583.84-61.38,581.94Z" style="mix-blend-mode:overlay;fill:#8c8c8c"/><path d="M-9.41,611.29c7.67-6.88,11.56-21.68,3.54-28.48h0c10.3,5.61,18.44,13.8,24.55,21.73h0c-6.65-7.76-56.59,24-39.55,30.81A62.84,62.84,0,0,1-33,631.68,64.68,64.68,0,0,1-47.66,623C-37.94,628.51-18.51,619.45-9.41,611.29Z" style="mix-blend-mode:overlay;fill:#8c8c8c"/><path d="M695.71,305.59c89.11,246.23-88.81,594.59-206.9,610.7C121.65,914.62-37,563,49.59,322.74a4.68,4.68,0,0,1,8.85,3C36.6,393,34.5,465,47.16,532.46c31.19,168,152.42,314.83,338.3,354C555.16,922.82,535.65,868.93,645,721.13c87.27-118,84.47-289,44.1-413.27A3.48,3.48,0,0,1,695.71,305.59Z" style="fill:#8c7770"/><path d="M100.23,283.49c9.35-17.95,19.62-41.84,23-61.72a34.85,34.85,0,0,0-65.74-20.92c-14.91,30.84-24.16,93-17.62,132.44a12.48,12.48,0,0,0,14.35,10.27C66.88,341.46,92.43,298.54,100.23,283.49Z" style="fill:url(#radial-gradient-11)"/><path d="M57.45,200.85c-14.91,30.84-24.16,93-17.62,132.44a12.48,12.48,0,0,0,14.35,10.27c12.7-2.1,38.25-45,46.05-60.07,9.35-17.95,19.62-41.84,23-61.72A34.85,34.85,0,0,0,57.45,200.85Zm44-11.49c15,4.68,18,26.63,4.73,56.25-11.76,26.2-34.57,43.55-43.72,40.07s-14.33-34.82-4.64-61.8C68.35,194.73,85.09,184.23,101.5,189.36Z" style="fill:#cfe6cf;mix-blend-mode:multiply"/><ellipse cx="89.68" cy="220.52" rx="30.91" ry="19.3" transform="rotate(-68.41 89.69 220.53)" style="mix-blend-mode:overlay;fill:#8c8c8c"/><path d="M16.43,430.14c-8.39-18.06-20.86-40.42-34.36-55a34.3,34.3,0,0,0-48.47-1.77,34.35,34.35,0,0,0-7.31,40.48c15.1,30.14,58,74.67,92.73,93.25a12.28,12.28,0,0,0,16.63-5C41.62,491,23.48,445.26,16.43,430.14Z" style="fill:url(#radial-gradient-12)"/><path d="M-73.72,413.9c15.1,30.14,58,74.67,92.73,93.25a12.28,12.28,0,0,0,16.63-5c6-11.17-12.16-56.86-19.21-72-8.39-18.06-20.86-40.42-34.36-55a34.3,34.3,0,0,0-48.47-1.77A34.35,34.35,0,0,0-73.72,413.9Zm17.48-41.26c12.65-8.88,31.59,1.92,46.72,30.07,13.37,24.9,13.22,53.11,5,58.16s-35.76-9.72-51-33.48C-71.95,401.72-70.09,382.36-56.24,372.64Z" style="fill:#cfe6cf;mix-blend-mode:multiply"/><path d="M71.73,539.93c6-19,15.48-42.77,27-58.92A34.3,34.3,0,0,1,159,512.21c-11.09,31.84-47.94,81.52-79.95,104.42a12.28,12.28,0,0,1-17.14-2.85C54.58,603.48,66.68,555.83,71.73,539.93Z" style="fill:url(#radial-gradient-13)"/><path d="M146.57,473a34.3,34.3,0,0,0-47.84,8c-11.52,16.15-21,39.93-27,58.92-5,15.9-17.15,63.55-9.78,73.86a12.28,12.28,0,0,0,17.14,2.85c32-22.89,68.85-72.58,79.95-104.42A34.35,34.35,0,0,0,146.57,473Zm-3.86,54.93c-12,25.52-37.46,43.72-46.25,39.77s-12.57-31.9-2.52-58.32c11.37-29.86,28.76-43,42.45-35.84C151.37,481.41,155.71,500.37,142.7,527.94Z" style="fill:#cfe6cf;mix-blend-mode:multiply"/><ellipse cx="122.91" cy="503.46" rx="30.42" ry="19" transform="rotate(-66.57 122.89 503.447)" style="mix-blend-mode:overlay;fill:#8c8c8c"/><path d="M646.21,265.95c-9.35-17.95-19.62-41.84-23-61.72A34.85,34.85,0,0,1,689,183.3c14.91,30.84,24.16,93,17.62,132.44A12.48,12.48,0,0,1,692.26,326C679.56,323.91,654,281,646.21,265.95Z" style="fill:url(#radial-gradient-14)"/><path d="M651.87,164.11a34.85,34.85,0,0,0-28.61,40.12c3.33,19.88,13.61,43.77,23,61.72,7.8,15,33.36,58,46.05,60.07a12.48,12.48,0,0,0,14.35-10.27c6.54-39.45-2.71-101.6-17.62-132.44A34.9,34.9,0,0,0,651.87,164.11Zm36.7,42.23c9.69,27,4.51,58.32-4.64,61.8s-32-13.88-43.72-40.07c-13.3-29.62-10.26-51.56,4.73-56.25C661.35,166.69,678.09,177.19,688.56,206.33Z" style="fill:#cfe6cf;mix-blend-mode:multiply"/><ellipse cx="656.76" cy="202.98" rx="19.3" ry="30.91" transform="rotate(-21.59 656.62 202.95)" style="mix-blend-mode:overlay;fill:#8c8c8c"/><path d="M730,412.59c8.39-18.06,20.86-40.42,34.36-55a34.3,34.3,0,0,1,55.78,38.72c-15.1,30.14-58,74.67-92.73,93.25a12.28,12.28,0,0,1-16.63-5C704.82,473.41,723,427.71,730,412.59Z" style="fill:url(#radial-gradient-15)"/><path d="M812.85,355.87a34.3,34.3,0,0,0-48.47,1.77c-13.51,14.53-26,36.89-34.36,55-7.05,15.12-25.19,60.82-19.21,72a12.28,12.28,0,0,0,16.63,5c34.69-18.58,77.63-63.1,92.73-93.25A34.35,34.35,0,0,0,812.85,355.87Zm-10.91,54c-15.22,23.76-42.78,38.53-51,33.48s-8.36-33.26,5-58.16c15.12-28.15,34.06-39,46.72-30.07C816.53,364.82,818.39,384.18,801.94,409.85Z" style="fill:#cfe6cf;mix-blend-mode:multiply"/><path d="M674.71,522.38c-6-19-15.48-42.77-27-58.92a34.3,34.3,0,0,0-60.31,31.21c11.09,31.84,47.94,81.52,79.95,104.42a12.28,12.28,0,0,0,17.14-2.85C691.86,585.94,679.76,538.29,674.71,522.38Z" style="fill:url(#radial-gradient-16)"/><path d="M587.41,494.67c11.09,31.84,47.94,81.52,79.95,104.42a12.28,12.28,0,0,0,17.14-2.85c7.37-10.3-4.73-58-9.78-73.86-6-19-15.48-42.77-27-58.92A34.3,34.3,0,0,0,587.41,494.67ZM610.05,456c13.69-7.18,31.08,6,42.45,35.84,10.06,26.41,6.27,54.37-2.52,58.32s-34.21-14.25-46.25-39.77C590.73,482.82,595.07,463.87,610.05,456Z" style="fill:#cfe6cf;mix-blend-mode:multiply"/><ellipse cx="623.53" cy="485.92" rx="19" ry="30.42" transform="rotate(-23.43 623.626 485.956)" style="mix-blend-mode:overlay;fill:#8c8c8c"/><path d="M573.19,761.83c6.47-21.24,12.76-49.09,12.35-71.21-0.39-21.12-45-54-66.14-53.58a38.31,38.31,0,0,0-36.19,28.18C473.31,701.5,503,786.47,518,827.71a13.7,13.7,0,0,0,17.55,8.2C548.86,831.09,567.8,779.64,573.19,761.83Z" style="fill:url(#radial-gradient-17)"/><path d="M483.2,665.22C473.31,701.5,503,786.47,518,827.71a13.7,13.7,0,0,0,17.55,8.2c13.28-4.82,32.22-56.27,37.61-74.08,6.47-21.24,12.76-49.09,12.35-71.21-0.39-21.12-45-54-66.14-53.58A38.31,38.31,0,0,0,483.2,665.22ZM528.42,644c17.12,2,52,41.15,43.62,75.78-7.42,30.63-28.54,53.95-39.11,52S510.46,737.09,515.49,706C520.93,672.47,509.68,641.74,528.42,644Z" style="fill:#cfe6cf;mix-blend-mode:multiply"/><path d="M179.46,681.39c5.13-30.69,32.52-55,57.66-61.41l1,4.56C214.39,629.28,186.21,651.14,179.46,681.39Z" style="fill:url(#radial-gradient-18)"/><path d="M200.77,643.31c6-7.64,16-15.4,25.74-17.27C214.28,631.76,207.29,638.24,200.77,643.31Z" style="mix-blend-mode:screen;fill:gray"/><path d="M137.32,645.76c28.58-11.63,45.56-43,46.29-67.32l4.67,0.25C186.11,604.53,166.75,635.58,137.32,645.76Z" style="fill:url(#radial-gradient-19)"/><path d="M184,588.5c0.74,9.14-5.94,22.31-12.26,29.18C175,611.76,182.35,598.75,184,588.5Z" style="mix-blend-mode:screen;fill:gray"/><path d="M167.83,650.76c-7.54,29.84-38.88,47.64-38.88,47.64s-19.11-30.56-11.57-60.4c5.8-23,25.7-38.8,34.56-44.88a4.67,4.67,0,0,1,6.8,1.72C163.65,604.41,173.63,627.8,167.83,650.76Z" style="fill:url(#radial-gradient-20)"/><path d="M158.75,594.85a4.67,4.67,0,0,0-6.8-1.72c-8.86,6.08-28.76,21.92-34.56,44.88-7.54,29.84,11.57,60.4,11.57,60.4s31.34-17.81,38.88-47.64C173.63,627.8,163.65,604.41,158.75,594.85Zm-35.91,78.27c-2.64-7.09-7-20.89-2.12-36.91,5.27-17.26,15.41-27.56,26-36.34,6.79-5.65,9.15-4.73,11.31,2.16,2.67,8.51,6.66,26.1,1.56,45.11a66.86,66.86,0,0,1-17.49,30.24C134.31,685,126.43,682.76,122.84,673.12Z" style="mix-blend-mode:multiply;fill:#e6cfd5"/><path d="M146.7,601.81c-4.43,3.44-17.38,15.47-22.18,28.52s-2.55,25.76.7,34.17c2.91,7.52,9.4,9.58,14.53,4.14,6.18-6.54,12.77-14.07,15.89-28.74a91.1,91.1,0,0,0,1-35.2C155.75,598.76,152,597.67,146.7,601.81Z" style="mix-blend-mode:overlay;fill:#8c8c8c"/><g style="mix-blend-mode:screen"><ellipse cx="143.35" cy="610.29" rx="11.03" ry="2.95" transform="rotate(-45.81 143.36 610.297)" style="fill:#8c8c8c"/></g><path d="M139.43,656.91c-9.41,1.85-22.6-3.54-23.17-13.31h0c-1.59,10.8-.06,21.44,2.42,30.43h0c-2.05-9.29,49.5-28.7,45.07-12.17a58.51,58.51,0,0,0,4.07-11.1A60.23,60.23,0,0,0,169.58,635C168.21,645.33,150.6,654.71,139.43,656.91Z" style="mix-blend-mode:overlay;fill:#8c8c8c"/><path d="M184.79,672.65c-19.87,23.5-55.84,25.76-55.84,25.76s-3.76-35.85,16.1-59.35c15.29-18.09,40.12-23.59,50.75-25.16a4.67,4.67,0,0,1,5.36,4.53C201.37,629.17,200.08,654.57,184.79,672.65Z" style="fill:url(#radial-gradient-21)"/><path d="M201.16,618.42a4.67,4.67,0,0,0-5.36-4.53c-10.63,1.58-35.46,7.08-50.75,25.16-19.87,23.5-16.1,59.35-16.1,59.35s36-2.25,55.84-25.76C200.08,654.57,201.37,629.17,201.16,618.42ZM134.55,673c0.74-7.53,2.86-21.85,14.29-34.1,12.31-13.2,25.93-18,39.28-21.26,8.58-2.1,10.3-.24,9.22,6.9-1.33,8.82-5.47,26.38-18.39,41.22a66.86,66.86,0,0,1-29,19.5C139.67,688.68,133.55,683.25,134.55,673Z" style="mix-blend-mode:multiply;fill:#e6cfd5"/><path d="M187.27,619.39c-5.49,1.15-22.4,6.28-32.45,15.9s-13.59,22-14.36,31c-0.68,8,4.25,12.73,11.24,10.1,8.42-3.17,17.65-7,26.89-18.86A91.1,91.1,0,0,0,195,626.36C196.75,620.62,193.89,618,187.27,619.39Z" style="mix-blend-mode:overlay;fill:#8c8c8c"/><g style="mix-blend-mode:screen"><ellipse cx="179.88" cy="625.58" rx="8.68" ry="2.68" transform="rotate(-19.79 179.858 625.543)" style="fill:#8c8c8c"/><ellipse cx="164.1" cy="632.02" rx="4.84" ry="1.88" transform="rotate(-32.4 164.092 632.004)" style="fill:#8c8c8c"/></g><circle cx="185.94" cy="578.56" r="8.83" transform="rotate(-49.79 185.943 578.564)" style="fill:url(#radial-gradient-22)"/><path d="M191.64,571.82a8.83,8.83,0,1,0,1,12.45A8.83,8.83,0,0,0,191.64,571.82Zm-10,10.26a6.48,6.48,0,1,1,9.13-.76A6.48,6.48,0,0,1,181.64,582.08Z" style="mix-blend-mode:multiply;fill:#e6cfd5"/><circle cx="185.83" cy="575.47" r="4.43" transform="rotate(-49.79 185.826 575.459)" style="mix-blend-mode:overlay;fill:#8c8c8c"/><circle cx="185.69" cy="573.73" r="2.3" transform="rotate(-49.79 185.696 573.736)" style="fill:#8c8c8c;mix-blend-mode:screen"/><ellipse cx="188.62" cy="582.12" rx="1.26" ry=".4" transform="rotate(-28.23 188.574 582.056)" style="mix-blend-mode:multiply;fill:#e6cfd5"/><path d="M193.09,573.37c0.67,1.71-4,4.43-6.48,5.12s-9,1.31-9.28-1.88a8.83,8.83,0,0,0,4.27,9.64c-3.39-4.09,10.95-11.73,13.16-7.22A8.84,8.84,0,0,0,193.09,573.37Z" style="mix-blend-mode:overlay;fill:#8c8c8c"/><circle cx="237.63" cy="622.26" r="8.83" transform="rotate(-49.79 237.621 622.254)" style="fill:url(#radial-gradient-23)"/><path d="M243.33,615.51a8.83,8.83,0,1,0,1,12.45A8.83,8.83,0,0,0,243.33,615.51Zm-10,10.26a6.48,6.48,0,1,1,9.13-.76A6.48,6.48,0,0,1,233.33,625.77Z" style="mix-blend-mode:multiply;fill:#e6cfd5"/><circle cx="237.52" cy="619.16" r="4.43" transform="rotate(-49.79 237.515 619.154)" style="mix-blend-mode:overlay;fill:#8c8c8c"/><circle cx="237.38" cy="617.43" r="2.3" transform="rotate(-49.79 237.364 617.42)" style="fill:#8c8c8c;mix-blend-mode:screen"/><ellipse cx="235.64" cy="626.23" rx=".4" ry="1.26" transform="rotate(-70.87 235.658 626.243)" style="mix-blend-mode:multiply;fill:#e6cfd5"/><path d="M244.77,617.07c0.67,1.71-4,4.43-6.48,5.12s-9,1.31-9.28-1.88a8.83,8.83,0,0,0,4.27,9.64c-3.39-4.09,10.95-11.73,13.16-7.22A8.84,8.84,0,0,0,244.77,617.07Z" style="mix-blend-mode:overlay;fill:#8c8c8c"/><path d="M646.27,429.13c-2.45-23.27-21.89-42.73-40.46-48.72l-1,3.38C622.45,388.44,642.6,406.12,646.27,429.13Z" style="fill:url(#radial-gradient-24)"/><path d="M632,399.59c-4.13-6-11.28-12.28-18.53-14.14C622.42,390.3,627.37,395.48,632,399.59Z" style="mix-blend-mode:screen;fill:gray"/><path d="M679.53,404.32c-20.91-10-32.22-34.33-31.66-52.63l-3.52,0C644.8,371.15,657.91,395.34,679.53,404.32Z" style="fill:url(#radial-gradient-25)"/><path d="M647.11,359.22c-1,6.83,3.44,17,7.86,22.46C652.81,377.09,647.89,367,647.11,359.22Z" style="mix-blend-mode:screen;fill:gray"/><path d="M656.4,406.68c4.3,22.73,27,37.53,27,37.53s15.74-22.06,11.44-44.79c-3.31-17.49-17.51-30.29-23.89-35.26a3.51,3.51,0,0,0-5.18,1C661.66,372.09,653.1,389.19,656.4,406.68Z" style="fill:url(#radial-gradient-26)"/><ellipse cx="692.21" cy="404.96" rx="2.49" ry=".51" transform="rotate(-87.7 691.285 404.703)" style="mix-blend-mode:multiply;fill:#e6cfd5"/><path d="M656.4,406.68c4.3,22.73,27,37.53,27,37.53s15.74-22.06,11.44-44.79c-3.31-17.49-17.51-30.29-23.89-35.26a3.51,3.51,0,0,0-5.18,1C661.66,372.09,653.1,389.19,656.4,406.68Zm18.12,21.15a50.26,50.26,0,0,1-11.74-23.49c-3-14.49.84-27.51,3.23-33.78,1.94-5.07,3.75-5.65,8.59-1.1,7.52,7.07,14.66,15.26,17.82,28.46,2.94,12.25-1,22.4-3.28,27.6C686,432.59,680,433.88,674.52,427.83Z" style="mix-blend-mode:multiply;fill:#e6cfd5"/><path d="M674.5,370.92c3.17,2.79,12.33,12.4,15.34,22.42a36.72,36.72,0,0,1-2.09,25.61c-2.53,5.51-7.49,6.76-11.09,2.44-4.34-5.19-8.94-11.14-10.61-22.3a68.49,68.49,0,0,1,.84-26.46C667.84,368.21,670.69,367.56,674.5,370.92Z" style="mix-blend-mode:overlay;fill:#8c8c8c"/><g style="mix-blend-mode:screen"><ellipse cx="676.62" cy="377.43" rx="2.22" ry="8.29" transform="rotate(-40.7 676.665 377.431)" style="fill:#8c8c8c"/></g><ellipse cx="669.9" cy="417.93" rx=".95" ry="3.88" transform="rotate(-28.29 669.986 417.955)" style="mix-blend-mode:multiply;fill:#e6cfd5"/><path d="M677.43,412.6c7,1.82,17.12-1.62,18-8.93h0a56.08,56.08,0,0,1-3.21,22.72h0c2-6.88-35.84-23.8-33.26-11.2a44,44,0,0,1-2.55-8.51,45.28,45.28,0,0,1-.6-11.89C656.36,402.59,669.15,410.44,677.43,412.6Z" style="mix-blend-mode:overlay;fill:#8c8c8c"/><path d="M637.18,444.82c21.09,9.51,46.23-.61,46.23-0.61s-9.05-25.54-30.14-35.05c-16.23-7.32-34.86-3-42.58-.64a3.51,3.51,0,0,0-2.17,4.81C611.84,420.69,620.95,437.5,637.18,444.82Z" style="fill:url(#radial-gradient-27)"/><path d="M637.18,444.82c21.09,9.51,46.23-.61,46.23-0.61s-9.05-25.54-30.14-35.05c-16.23-7.32-34.86-3-42.58-.64a3.51,3.51,0,0,0-2.17,4.81C611.84,420.69,620.95,437.5,637.18,444.82Zm27.71-2.72a50.26,50.26,0,0,1-26-3.85c-13.57-5.88-22.06-16.46-25.82-22-3-4.49-2.48-6.31,4-7.67,10.11-2.11,20.91-3.26,33.53,1.71,11.72,4.61,17.79,13.64,20.73,18.51C675.37,435.42,673,441.09,664.89,442.1Z" style="mix-blend-mode:multiply;fill:#e6cfd5"/><path d="M618.24,409.49c4.1-1,17.23-3,27.16.28a36.72,36.72,0,0,1,19.79,16.4c3.07,5.23,1.24,10-4.36,10.49-6.74.58-14.25,0.94-24.35-4.09a68.49,68.49,0,0,1-21.2-15.86C612.21,413.39,613.31,410.69,618.24,409.49Z" style="mix-blend-mode:overlay;fill:#8c8c8c"/><g style="mix-blend-mode:screen"><ellipse cx="625.26" cy="411.3" rx="6.53" ry="2.02" transform="rotate(-5.72 625.497 411.414)" style="fill:#595959;mix-blend-mode:overlay"/></g><ellipse cx="633.48" cy="433.54" rx=".95" ry="3.88" transform="rotate(-58.3 633.415 433.532)" style="mix-blend-mode:multiply;fill:#e6cfd5"/><path d="M654.08,431c5.49-4.67,8.48-15,3-19.86h0a56.08,56.08,0,0,1,16.78,15.66h0c-4.51-5.55-40,15.72-28.24,20.83a44,44,0,0,1-8.44-2.79,45.28,45.28,0,0,1-10.08-6.33C633.8,442.51,647.56,436.53,654.08,431Z" style="mix-blend-mode:overlay;fill:#8c8c8c"/><path d="M642.68,422.33c13.83,18.54,40.73,21.88,40.73,21.88s4.46-26.73-9.37-45.27c-10.65-14.27-29-19.53-36.93-21.2a3.51,3.51,0,0,0-4.23,3.16C632.22,388.95,632,408.06,642.68,422.33Z" style="fill:url(#radial-gradient-28)"/><path d="M642.68,422.33c13.83,18.54,40.73,21.88,40.73,21.88s4.46-26.73-9.37-45.27c-10.65-14.27-29-19.53-36.93-21.2a3.51,3.51,0,0,0-4.23,3.16C632.22,388.95,632,408.06,642.68,422.33Zm25.56,11.05a50.26,50.26,0,0,1-20.86-16c-9-11.73-11.32-25.09-11.92-31.77-0.48-5.4.89-6.72,7.23-4.76,9.86,3.06,19.87,7.29,28.5,17.75,8,9.72,8.95,20.56,9.16,26.24C680.64,432.63,675.8,436.42,668.24,433.39Z" style="mix-blend-mode:multiply;fill:#e6cfd5"/><path d="M643.25,382.25c4.07,1.11,16.52,5.73,23.62,13.41a36.72,36.72,0,0,1,9.36,23.93c0.15,6.06-3.77,9.36-8.89,7.06-6.17-2.76-12.92-6.09-19.32-15.38a68.49,68.49,0,0,1-10.86-24.15C636.08,382.74,638.35,380.91,643.25,382.25Z" style="mix-blend-mode:overlay;fill:#8c8c8c"/><g style="mix-blend-mode:screen"><ellipse cx="648.51" cy="387.24" rx="2.02" ry="6.53" transform="rotate(-66.72 648.552 387.235)" style="fill:#8c8c8c"/><ellipse cx="660.06" cy="392.79" rx="1.42" ry="3.64" transform="rotate(-54.11 660.123 392.792)" style="fill:#8c8c8c"/></g><ellipse cx="659.74" cy="426.52" rx=".95" ry="3.88" transform="rotate(-54.32 659.672 426.516)" style="mix-blend-mode:multiply;fill:#e6cfd5"/><path d="M664.17,418.42c7.07-1.42,14.67-9,12.25-15.92h0a56.08,56.08,0,0,1,7.08,21.83h0c-1.25-7-42.64-5.66-34.8,4.53a44,44,0,0,1-6-6.53,45.28,45.28,0,0,1-5.75-10.42C640.84,418.67,655.78,420.11,664.17,418.42Z" style="mix-blend-mode:overlay;fill:#8c8c8c"/><circle cx="646.11" cy="351.68" r="6.64" transform="rotate(-36.72 646.195 351.689)" style="fill:url(#radial-gradient-29)"/><path d="M640.79,355.65a6.64,6.64,0,1,0,1.35-9.29A6.64,6.64,0,0,0,640.79,355.65Zm1.57-2.13a4.87,4.87,0,1,1,6.82,1A4.87,4.87,0,0,1,642.36,353.52Z" style="mix-blend-mode:multiply;fill:#e6cfd5"/><circle cx="646.33" cy="349.36" r="3.33" transform="rotate(-36.72 646.413 349.37)" style="mix-blend-mode:overlay;fill:#8c8c8c"/><circle cx="646.52" cy="348.06" r="1.73" transform="rotate(-36.72 646.622 348.084)" style="fill:#8c8c8c;mix-blend-mode:screen"/><ellipse cx="643.94" cy="354.22" rx=".3" ry=".95" transform="rotate(-58.29 643.92 354.22)" style="mix-blend-mode:multiply;fill:#e6cfd5"/><path d="M641,347.45c-0.58,1.25,2.83,3.51,4.62,4.14s6.67,1.4,7.05-1a6.64,6.64,0,0,1-3.65,7c2.73-2.91-7.68-9.3-9.55-6A6.64,6.64,0,0,1,641,347.45Z" style="mix-blend-mode:overlay;fill:#8c8c8c"/><circle cx="605.33" cy="382.1" r="6.64" transform="rotate(-36.72 605.405 382.121)" style="fill:url(#radial-gradient-30)"/><path d="M600,386.07a6.64,6.64,0,1,0,1.35-9.29A6.64,6.64,0,0,0,600,386.07Zm1.57-2.13a4.87,4.87,0,1,1,6.82,1A4.87,4.87,0,0,1,601.58,383.95Z" style="mix-blend-mode:multiply;fill:#e6cfd5"/><circle cx="605.55" cy="379.78" r="3.33" transform="rotate(-36.72 605.638 379.807)" style="mix-blend-mode:overlay;fill:#8c8c8c"/><circle cx="605.74" cy="378.49" r="1.73" transform="rotate(-36.72 605.817 378.512)" style="fill:#8c8c8c;mix-blend-mode:screen"/><ellipse cx="606.64" cy="385.17" rx=".95" ry=".3" transform="rotate(-15.64 606.72 385.226)" style="mix-blend-mode:multiply;fill:#e6cfd5"/><path d="M600.21,377.88c-0.58,1.25,2.83,3.51,4.63,4.14s6.67,1.4,7.05-1a6.64,6.64,0,0,1-3.65,7c2.73-2.91-7.68-9.3-9.55-6A6.64,6.64,0,0,1,600.21,377.88Z" style="mix-blend-mode:overlay;fill:#8c8c8c"/><path d="M764,591.44c-18.71,23.62-53.84,26.95-53.84,26.95s-4.8-35,13.9-58.58c14.39-18.17,38.52-24.34,48.87-26.21a4.58,4.58,0,0,1,5.39,4.27C778.91,548.37,778.44,573.26,764,591.44Z" style="fill:url(#radial-gradient-31)"/><ellipse cx="723.79" cy="567.79" rx="3.24" ry=".67" transform="rotate(-64.7 723.734 567.78)" style="mix-blend-mode:multiply;fill:#e6cfd5"/><path d="M778.36,537.86A4.58,4.58,0,0,0,773,533.6c-10.35,1.87-34.48,8-48.87,26.21-18.71,23.62-13.9,58.58-13.9,58.58s35.13-3.33,53.84-26.95C778.44,573.26,778.91,548.37,778.36,537.86ZM714.9,593.35c0.49-7.39,2.11-21.47,12.91-33.81,11.63-13.3,24.81-18.43,37.77-22,8.33-2.32,10.07-.55,9.24,6.46-1,8.67-4.52,26-16.71,40.91a65.45,65.45,0,0,1-27.76,20C720.39,608.53,714.23,603.41,714.9,593.35Z" style="mix-blend-mode:multiply;fill:#e6cfd5"/><path d="M764.81,539.24c-5.34,1.3-21.72,6.84-31.25,16.57s-12.61,22-13.08,30.8c-0.42,7.88,4.55,12.32,11.31,9.53,8.14-3.37,17-7.44,25.73-19.29a89.19,89.19,0,0,0,15-31C774.12,540.15,771.24,537.68,764.81,539.24Z" style="mix-blend-mode:overlay;fill:#8c8c8c"/><path d="M736.22,585.54c-9.15-2.12-18.76-12.23-15.35-21.18h0c-5.75,9-8.65,19.13-10,28.15h0c1.9-9.12,55.72-5.77,45.13,7.21a57.28,57.28,0,0,0,8.09-8.28,59,59,0,0,0,7.88-13.35C766.57,586.74,747.08,588.06,736.22,585.54Z" style="mix-blend-mode:overlay;fill:#8c8c8c"/><path d="M763.15,647.05c-30.08-1.79-52.95-28.66-52.95-28.66s25.89-24,56-22.19c23.14,1.38,42,17.61,49.49,25a4.58,4.58,0,0,1-.41,6.86C807,634.54,786.29,648.43,763.15,647.05Z" style="fill:url(#radial-gradient-32)"/><path d="M815.26,628.07a4.58,4.58,0,0,0,.41-6.86c-7.47-7.41-26.35-23.64-49.49-25-30.08-1.79-56,22.19-56,22.19s22.87,26.88,52.95,28.66C786.29,648.43,807,634.54,815.26,628.07Zm-81.85-20.19c6.34-3.84,18.8-10.57,35.11-8.81,17.57,1.9,29.32,9.77,39.71,18.31,6.68,5.5,6.23,7.93,0,11.27-7.7,4.13-23.88,11.19-43.1,9.76a65.45,65.45,0,0,1-32.29-11.28C724.12,621.09,724.79,613.1,733.41,607.88Z" style="mix-blend-mode:multiply;fill:#e6cfd5"/><path d="M770.41,617.79c-27.17,13-60.2.6-60.2,0.6s11-33.53,38.19-46.54c20.91-10,45.29-5,55.42-2.11a4.58,4.58,0,0,1,3,6.2C802.66,585.61,791.32,607.77,770.41,617.79Z" style="fill:url(#radial-gradient-33)"/><path d="M806.78,575.93a4.58,4.58,0,0,0-3-6.2c-10.13-2.86-34.51-7.9-55.42,2.11-27.17,13-38.19,46.54-38.19,46.54s33,12.42,60.2-.6C791.32,607.77,802.66,585.61,806.78,575.93Zm-81.38,22c3.68-6.43,11.32-18.36,26.44-24.72,16.29-6.85,30.38-5.67,43.61-3.23,8.51,1.57,9.29,3.92,5.46,9.86-4.73,7.34-15.46,21.37-33,29.43a65.45,65.45,0,0,1-33.71,5.79C723.68,614,720.4,606.7,725.41,598Z" style="mix-blend-mode:multiply;fill:#e6cfd5"/><path d="M748,600.28c-7.29-5.92-11.49-19.22-4.5-25.77h0c-9.12,5.57-16.17,13.39-21.37,20.89h0c5.71-7.37,52.6,19.26,37.39,26.28a57.28,57.28,0,0,0,10.9-3.89,59,59,0,0,0,12.94-8.54C774.74,614.68,756.64,607.31,748,600.28Z" style="mix-blend-mode:overlay;fill:#8c8c8c"/><path d="M569.06,660.89c-11.07-31.94-44.8-53-72.89-55.29l-0.26,5.07C522.2,611.44,556.35,629.73,569.06,660.89Z" style="fill:url(#radial-gradient-34)"/><path d="M539.33,624c-7.78-7.1-19.9-13.59-30.7-13.82C522.76,614.07,531.43,619.74,539.33,624Z" style="mix-blend-mode:screen;fill:gray"/><path d="M607.72,615.09c-32.72-7.27-56.59-37.75-61.79-63.69l-5,1.11C548,579.8,574.36,609.54,607.72,615.09Z" style="fill:url(#radial-gradient-35)"/><path d="M547.33,562.25c0.87,9.93,10.41,22.81,18.42,29C561.2,585.52,551,572.93,547.33,562.25Z" style="mix-blend-mode:screen;fill:gray"/><path d="M576,626c13.49,30.58,50.29,44,50.29,44s14.92-36.2,1.42-66.78c-10.38-23.53-34.56-36.88-45.16-41.78a5.08,5.08,0,0,0-7,3.08C572,575.6,565.58,602.45,576,626Z" style="fill:url(#radial-gradient-36)"/><ellipse cx="625.78" cy="611.83" rx=".74" ry="3.6" transform="rotate(-10.73 625.951 611.955)" style="mix-blend-mode:multiply;fill:#e6cfd5"/><path d="M576,626c13.49,30.58,50.29,44,50.29,44s14.92-36.2,1.42-66.78c-10.38-23.53-34.56-36.88-45.16-41.78a5.08,5.08,0,0,0-7,3.08C572,575.6,565.58,602.45,576,626Zm32.42,23.82a72.61,72.61,0,0,1-24.22-29.21c-8.91-19.42-7.83-39-6.52-48.59,1.06-7.77,3.42-9.18,11.72-4.36,12.9,7.49,25.63,16.68,34.4,34.2,8.15,16.27,6,31.84,4.43,39.91C626.1,652.74,618.06,656.53,608.38,649.81Z" style="mix-blend-mode:multiply;fill:#e6cfd5"/><path d="M589.7,569.73c5.37,2.88,21.41,13.41,28.93,26.52S626,623.37,624.08,633c-1.75,8.58-8.33,12-14.81,7.07-7.8-5.89-16.23-12.75-22.24-27.9-7.08-17.84-7.38-30.58-7.49-37.51C579.45,568.11,583.24,566.26,589.7,569.73Z" style="mix-blend-mode:overlay;fill:#8c8c8c"/><g style="mix-blend-mode:screen"><ellipse cx="594.82" cy="578.2" rx="3.2" ry="11.98" transform="rotate(-53.81 594.797 578.195)" style="fill:#8c8c8c"/></g><ellipse cx="598.63" cy="637.4" rx="1.38" ry="5.61" transform="rotate(-41.4 598.656 637.41)" style="mix-blend-mode:multiply;fill:#e6cfd5"/><path d="M607.48,627.42c10.41,0.28,23.56-7.89,22.4-18.46h0c3.66,11.28,4,23,2.93,33h0c0.51-10.32-58.22-21.74-50.47-4.86A63.56,63.56,0,0,1,576,626a65.42,65.42,0,0,1-4.73-16.54C574.56,620.24,595.12,627.09,607.48,627.42Z" style="mix-blend-mode:overlay;fill:#8c8c8c"/><path d="M588.59,702c32.79,6.48,37.65-32,37.65-32s-21.11-33-53.9-39.45c-25.23-5-50,7.18-60.12,13a5.08,5.08,0,0,0-1.48,7.48C517.85,660.29,563.36,697,588.59,702Z" style="fill:url(#radial-gradient-37)"/><path d="M588.59,702c32.79,6.48,37.65-32,37.65-32s-21.11-33-53.9-39.45c-25.23-5-50,7.18-60.12,13a5.08,5.08,0,0,0-1.48,7.48C517.85,660.29,563.36,697,588.59,702Zm10.91-29c-5.16,1.9,7.73,22.49-10.62,19.14-21-3.83-63.63-32-70.75-38.56-5.75-5.32-5.56-8.07,3.15-12.11,13.53-6.28,28.36-11.44,47.75-8.58,18,2.65,29.51,13.37,35.24,19.25C612.07,660.21,610.55,669,599.5,673Z" style="mix-blend-mode:multiply;fill:#e6cfd5"/><path d="M523.18,642.44c5.44-2.75,23.26-9.86,38.31-8.5s26.47,9.48,33.21,16.59c6,6.35,5,13.68-2.69,16.19-9.3,3-19.75,6-35.6,2.23-18.68-4.43-29.29-11.49-35-15.37C516,649.91,516.63,645.75,523.18,642.44Z" style="mix-blend-mode:overlay;fill:#8c8c8c"/><g style="mix-blend-mode:screen"><ellipse cx="533.65" cy="642.68" rx="9.43" ry="2.92" transform="rotate(-18.83 533.603 642.637)" style="fill:#595959;mix-blend-mode:overlay"/></g><path d="M580.64,660.94c6.2-8.37,7-23.83-2.29-28.93h0c11.34,3.46,21.07,9.92,28.74,16.54h0c-8.17-6.34-24,51.28-5.72,54.61A63.55,63.55,0,0,1,588.59,702a65.41,65.41,0,0,1-16.26-5.6C583.08,699.85,573.29,670.88,580.64,660.94Z" style="mix-blend-mode:overlay;fill:#8c8c8c"/><path d="M561.77,652.51C587.31,674.07,626.25,670,626.25,670s-2.48-39.07-28-60.63c-19.65-16.59-47.24-18-58.91-17.74a5.08,5.08,0,0,0-4.92,5.83C536.12,609,542.12,635.91,561.77,652.51Z" style="fill:url(#radial-gradient-38)"/><path d="M561.77,652.51C587.31,674.07,626.25,670,626.25,670s-2.48-39.07-28-60.63c-19.65-16.59-47.24-18-58.91-17.74a5.08,5.08,0,0,0-4.92,5.83C536.12,609,542.12,635.91,561.77,652.51Zm39.59,7.18a72.62,72.62,0,0,1-34.58-15.62c-16.53-13.54-24.14-31.6-27.17-40.8-2.45-7.45-1-9.75,8.62-9.06,14.88,1.07,30.35,3.74,45.92,15.64,14.46,11,19.33,26,21.49,33.92C618.57,654.55,613,661.48,601.36,659.69Z" style="mix-blend-mode:multiply;fill:#e6cfd5"/><path d="M549.44,595.92c6.09,0.23,25.13,2.66,37.63,11.14s18.55,21.12,21,30.61c2.19,8.48-2.24,14.4-10.2,12.85-9.59-1.87-20.18-4.34-32.22-15.31-14.19-12.93-20.05-24.25-23.19-30.42C539.51,599,542.11,595.64,549.44,595.92Z" style="mix-blend-mode:overlay;fill:#8c8c8c"/><g style="mix-blend-mode:screen"><ellipse cx="558.48" cy="601.21" rx="2.92" ry="9.43" transform="rotate(-79.83 558.483 601.218)" style="fill:#8c8c8c"/><ellipse cx="576.55" cy="605.24" rx="2.05" ry="5.26" transform="rotate(-67.22 576.566 605.243)" style="fill:#8c8c8c"/></g><path d="M590.73,640c9.48-4.32,17.71-17.43,12-26.42h0c8.24,8.53,13.62,18.89,17.12,28.4h0c-4.07-9.5-61.86,6-47.48,17.78a63.55,63.55,0,0,1-10.62-7.22,65.42,65.42,0,0,1-11.51-12.78C558,648,579.48,645.09,590.73,640Z" style="mix-blend-mode:overlay;fill:#8c8c8c"/><circle cx="543.46" cy="551.96" r="9.59" transform="rotate(-49.83 543.468 551.971)" style="fill:url(#radial-gradient-39)"/><path d="M537.27,559.29a9.59,9.59,0,1,0-1.14-13.52A9.59,9.59,0,0,0,537.27,559.29Zm1.52-3.51a7,7,0,1,1,9.92-.84A7,7,0,0,1,538.79,555.78Z" style="mix-blend-mode:multiply;fill:#e6cfd5"/><circle cx="543.01" cy="548.63" r="4.81" transform="rotate(-49.83 543.005 548.628)" style="mix-blend-mode:overlay;fill:#8c8c8c"/><circle cx="542.85" cy="546.74" r="2.49" transform="rotate(-49.83 542.86 546.742)" style="fill:#8c8c8c;mix-blend-mode:screen"/><ellipse cx="541.24" cy="556.25" rx=".44" ry="1.37" transform="rotate(-71.3 541.626 554.67)" style="mix-blend-mode:multiply;fill:#e6cfd5"/><path d="M534.86,547.7c-0.41,2,5.14,4,7.86,4.31s9.85-.22,9.6-3.7a9.59,9.59,0,0,1-2.82,11.1c2.88-5-13.85-10.58-15.4-5.35A9.6,9.6,0,0,1,534.86,547.7Z" style="mix-blend-mode:overlay;fill:#8c8c8c"/><circle cx="496.04" cy="608.14" r="9.59" transform="rotate(-49.83 496.047 608.137)" style="fill:url(#radial-gradient-40)"/><path d="M489.85,615.47a9.59,9.59,0,1,0-1.14-13.52A9.59,9.59,0,0,0,489.85,615.47Zm1.52-3.51a7,7,0,1,1,9.92-.84A7,7,0,0,1,491.37,612Z" style="mix-blend-mode:multiply;fill:#e6cfd5"/><circle cx="495.59" cy="604.8" r="4.81" transform="rotate(-49.83 495.606 604.804)" style="mix-blend-mode:overlay;fill:#8c8c8c"/><circle cx="495.43" cy="602.92" r="2.49" transform="rotate(-49.83 495.424 602.914)" style="fill:#8c8c8c;mix-blend-mode:screen"/><ellipse cx="498.89" cy="612.02" rx="1.37" ry=".44" transform="rotate(-28.75 498.827 611.973)" style="mix-blend-mode:multiply;fill:#e6cfd5"/><path d="M487.45,603.87c-0.41,2,5.14,4,7.86,4.31s9.85-.22,9.6-3.7a9.59,9.59,0,0,1-2.82,11.1c2.88-5-13.85-10.58-15.4-5.35A9.6,9.6,0,0,1,487.45,603.87Z" style="mix-blend-mode:overlay;fill:#8c8c8c"/><path d="M55.28 324.11c-1.91-27.89 15.66-88.92 41.6-119.87C80.73 231 59.43 293.68 55.28 324.11ZM49.14 347.38c15.6-4.8 38.42-37.62 47.12-51.87 8.06-13.41 13.09-23.64 20.1-38C102.64 312.26 64.06 346.26 49.14 347.38ZM34.92 267.89C30.12 231.12 46.69 175 93.61 177c-10 1.73-18.93 4.73-27 11C44.66 205.11 37.09 240.23 34.92 267.89ZM-83 403.6c3.15 8.43 11.53 21.87 16.74 29.69C-42.13 469-18.58 488.88 6.49 503.46-44 485.66-79 426.81-83 403.6ZM-48.44 385.5c14 21.42 35.35 61.69 54.93 86.13C-16.33 453.91-38.57 412.94-48.44 385.5ZM64.33 545.76c1.77-30.31 22.68-70.07 51.29-80.68C90 482.65 73.57 516 64.33 545.76ZM80.48 590.35c8.06-23.36 28-63.38 39.95-84.93C114 530.4 94.64 569.07 80.48 590.35ZM580.47 479.75c9.18 44.87 31.73 71.17 61.81 102.28C608.34 558.54 580.71 520.89 580.47 479.75ZM623.77 494c7 18.92 30.09 66.58 46.13 88.07C646.17 562.5 625.64 513.94 623.77 494ZM652.2 191.22c11.31 24.65 30.68 64.42 33.28 91.5C675.79 255.58 656.56 215.51 652.2 191.22ZM710 208.67c5.67 23.8 6.33 89.42-4.2 117.52C709.43 300.66 710.29 216.4 710 208.67Z" style="fill:#528065"/><path d="M61.34,430.33l0.19-.62c0.13-.4.29-1,0.56-1.74s0.58-1.65,1-2.67,0.9-2.16,1.49-3.39,1.29-2.52,2.12-3.84l0.61-1,0.69-1c0.47-.67.92-1.38,1.47-2l1.63-2c0.57-.67,1.2-1.3,1.81-1.95,0.31-.32.61-0.66,0.94-1l1-.91c0.68-.6,1.33-1.24,2-1.81a53.42,53.42,0,0,1,4.41-3.16l2.25-1.42,2.3-1.2c0.76-.38,1.48-0.81,2.24-1.12l2.22-.9,2.1-.85,2-.65c1.29-.41,2.47-0.81,3.54-1.06l2.78-.62,2.42-.51-2.35.77-2.7.85c-1,.35-2.16.85-3.42,1.3l-2,.74-2,1-2.13,1c-0.72.36-1.42,0.78-2.16,1.17l-2.22,1.23L82,404.33a52.81,52.81,0,0,0-4.27,3.12c-0.69.55-1.33,1.16-2,1.74l-1,.87c-0.32.3-.61,0.63-0.92,0.94-0.6.63-1.23,1.23-1.8,1.86l-1.64,1.92c-0.56.62-1,1.31-1.5,1.94l-0.72.94-0.65,1c-0.88,1.25-1.61,2.5-2.28,3.66-0.34.58-.61,1.16-0.91,1.69s-0.57,1-.8,1.54c-0.49,1-.89,1.84-1.2,2.56Z" style="fill:#66474f"/><path d="M55 454.08c-11-19.35-13.39-43.57 1.45-59.52C45.68 417.63 50.3 431.76 55 454.08ZM74.91 458.2c4-2.24 8.22-3.86 12-6 14.28-7.7 20.06-18.85 26.75-28.26-3.69 13.83-12 25.84-25.48 31A63.32 63.32 0 0 1 74.91 458.2ZM91.39 468.38c9.63-3.19 24.31-5.57 39.43-18.91A124.47 124.47 0 0 0 141 438.63C132.66 458.72 113 468.78 91.39 468.38ZM-33.9 535.26c32.36 2.14 61.5 23.81 64.79 57C18 559.83.88 547.12-33.9 535.26ZM-70.25 577.91C-53 566.47-16.81 566.48 3.54 589c-8.3-4.63-25.76-15.51-54.67-14A95.71 95.71 0 0 0-70.25 577.91ZM-55.26 621c15.72 12.63 55 12.5 73.5 12.77C-8.81 642.11-45.93 635.81-55.26 621ZM-56.19 663.21c14.24 3.22 50.35 3.17 78.11-17.87a105.21 105.21 0 0 0 9-7.9C11.84 669.57-36.45 673.71-56.19 663.21ZM111 663.21c-6.33-33.6 11.38-60.46 40.93-70.08C120.38 614.42 114 630.54 111 663.21ZM123.57 687.81a71.89 71.89 0 0 1 1.33-19.9c4.48-21.72 18-39.14 36-45.65-14.88 11.41-25.23 24.55-32.35 46.61C126.57 675 125.06 681.34 123.57 687.81ZM163.84 691.32c23.9-16.24 35.71-36 40.33-63.82C208.24 656.42 186.81 685.3 163.84 691.32Z" style="fill:#994d60"/><path d="M181.46,884.95c169.71,36.37,297.66-3.57,426.12-149.38,93.66-131.35,114.51-274.49,81.55-427.71a3.48,3.48,0,0,1,6.58-2.27c89.11,246.23-47.34,606.91-410.89,609.2" style="fill:#8c7770"/><path d="M646.21,265.95c-9.35-17.95-19.62-41.84-23-61.72A34.85,34.85,0,0,1,689,183.3c14.91,30.84,24.16,93,17.62,132.44A12.48,12.48,0,0,1,692.26,326C679.56,323.91,654,281,646.21,265.95Z" style="fill:url(#radial-gradient-14)"/><path d="M651.87,164.11a34.85,34.85,0,0,0-28.61,40.12c3.33,19.88,13.61,43.77,23,61.72,7.8,15,33.36,58,46.05,60.07a12.48,12.48,0,0,0,14.35-10.27c6.54-39.45-2.71-101.6-17.62-132.44A34.9,34.9,0,0,0,651.87,164.11Zm36.7,42.23c9.69,27,4.51,58.32-4.64,61.8s-32-13.88-43.72-40.07c-13.3-29.62-10.26-51.56,4.73-56.25C661.35,166.69,678.09,177.19,688.56,206.33Z" style="fill:#cfe6cf;mix-blend-mode:multiply"/><ellipse cx="656.76" cy="202.98" rx="19.3" ry="30.91" transform="rotate(-21.59 656.62 202.95)" style="mix-blend-mode:overlay;fill:#8c8c8c"/><path d="M730,412.59c8.39-18.06,20.86-40.42,34.36-55a34.3,34.3,0,0,1,55.78,38.72c-15.1,30.14-58,74.67-92.73,93.25a12.28,12.28,0,0,1-16.63-5C704.82,473.41,723,427.71,730,412.59Z" style="fill:url(#radial-gradient-15)"/><path d="M812.85,355.87a34.3,34.3,0,0,0-48.47,1.77c-13.51,14.53-26,36.89-34.36,55-7.05,15.12-25.19,60.82-19.21,72a12.28,12.28,0,0,0,16.63,5c34.69-18.58,77.63-63.1,92.73-93.25A34.35,34.35,0,0,0,812.85,355.87Zm-10.91,54c-15.22,23.76-42.78,38.53-51,33.48s-8.36-33.26,5-58.16c15.12-28.15,34.06-39,46.72-30.07C816.53,364.82,818.39,384.18,801.94,409.85Z" style="fill:#cfe6cf;mix-blend-mode:multiply"/><path d="M674.71,522.38c-6-19-15.48-42.77-27-58.92a34.3,34.3,0,0,0-60.31,31.21c11.09,31.84,47.94,81.52,79.95,104.42a12.28,12.28,0,0,0,17.14-2.85C691.86,585.94,679.76,538.29,674.71,522.38Z" style="fill:url(#radial-gradient-16)"/><path d="M587.41,494.67c11.09,31.84,47.94,81.52,79.95,104.42a12.28,12.28,0,0,0,17.14-2.85c7.37-10.3-4.73-58-9.78-73.86-6-19-15.48-42.77-27-58.92A34.3,34.3,0,0,0,587.41,494.67ZM610.05,456c13.69-7.18,31.08,6,42.45,35.84,10.06,26.41,6.27,54.37-2.52,58.32s-34.21-14.25-46.25-39.77C590.73,482.82,595.07,463.87,610.05,456Z" style="fill:#cfe6cf;mix-blend-mode:multiply"/><ellipse cx="623.53" cy="485.92" rx="19" ry="30.42" transform="rotate(-23.43 623.626 485.956)" style="mix-blend-mode:overlay;fill:#8c8c8c"/><path d="M573.19,761.83c6.47-21.24,12.76-49.09,12.35-71.21-0.39-21.12-45-54-66.14-53.58a38.31,38.31,0,0,0-36.19,28.18C473.31,701.5,503,786.47,518,827.71a13.7,13.7,0,0,0,17.55,8.2C548.86,831.09,567.8,779.64,573.19,761.83Z" style="fill:url(#radial-gradient-17)"/><path d="M483.2,665.22C473.31,701.5,503,786.47,518,827.71a13.7,13.7,0,0,0,17.55,8.2c13.28-4.82,32.22-56.27,37.61-74.08,6.47-21.24,12.76-49.09,12.35-71.21-0.39-21.12-45-54-66.14-53.58A38.31,38.31,0,0,0,483.2,665.22ZM528.42,644c17.12,2,52,41.15,43.62,75.78-7.42,30.63-28.54,53.95-39.11,52S510.46,737.09,515.49,706C520.93,672.47,509.68,641.74,528.42,644Z" style="fill:#cfe6cf;mix-blend-mode:multiply"/><path d="M646.27,429.13c-2.45-23.27-21.89-42.73-40.46-48.72l-1,3.38C622.45,388.44,642.6,406.12,646.27,429.13Z" style="fill:url(#radial-gradient-24)"/><path d="M632,399.59c-4.13-6-11.28-12.28-18.53-14.14C622.42,390.3,627.37,395.48,632,399.59Z" style="mix-blend-mode:screen;fill:gray"/><path d="M679.53,404.32c-20.91-10-32.22-34.33-31.66-52.63l-3.52,0C644.8,371.15,657.91,395.34,679.53,404.32Z" style="fill:url(#radial-gradient-25)"/><path d="M647.11,359.22c-1,6.83,3.44,17,7.86,22.46C652.81,377.09,647.89,367,647.11,359.22Z" style="mix-blend-mode:screen;fill:gray"/><path d="M656.4,406.68c4.3,22.73,27,37.53,27,37.53s15.74-22.06,11.44-44.79c-3.31-17.49-17.51-30.29-23.89-35.26a3.51,3.51,0,0,0-5.18,1C661.66,372.09,653.1,389.19,656.4,406.68Z" style="fill:url(#radial-gradient-26)"/><ellipse cx="692.21" cy="404.96" rx="2.49" ry=".51" transform="rotate(-87.7 691.285 404.703)" style="mix-blend-mode:multiply;fill:#e6cfd5"/><path d="M656.4,406.68c4.3,22.73,27,37.53,27,37.53s15.74-22.06,11.44-44.79c-3.31-17.49-17.51-30.29-23.89-35.26a3.51,3.51,0,0,0-5.18,1C661.66,372.09,653.1,389.19,656.4,406.68Zm18.12,21.15a50.26,50.26,0,0,1-11.74-23.49c-3-14.49.84-27.51,3.23-33.78,1.94-5.07,3.75-5.65,8.59-1.1,7.52,7.07,14.66,15.26,17.82,28.46,2.94,12.25-1,22.4-3.28,27.6C686,432.59,680,433.88,674.52,427.83Z" style="mix-blend-mode:multiply;fill:#e6cfd5"/><path d="M674.5,370.92c3.17,2.79,12.33,12.4,15.34,22.42a36.72,36.72,0,0,1-2.09,25.61c-2.53,5.51-7.49,6.76-11.09,2.44-4.34-5.19-8.94-11.14-10.61-22.3a68.49,68.49,0,0,1,.84-26.46C667.84,368.21,670.69,367.56,674.5,370.92Z" style="mix-blend-mode:overlay;fill:#8c8c8c"/><g style="mix-blend-mode:screen"><ellipse cx="676.62" cy="377.43" rx="2.22" ry="8.29" transform="rotate(-40.7 676.665 377.431)" style="fill:#8c8c8c"/></g><ellipse cx="669.9" cy="417.93" rx=".95" ry="3.88" transform="rotate(-28.29 669.986 417.955)" style="mix-blend-mode:multiply;fill:#e6cfd5"/><path d="M677.43,412.6c7,1.82,17.12-1.62,18-8.93h0a56.08,56.08,0,0,1-3.21,22.72h0c2-6.88-35.84-23.8-33.26-11.2a44,44,0,0,1-2.55-8.51,45.28,45.28,0,0,1-.6-11.89C656.36,402.59,669.15,410.44,677.43,412.6Z" style="mix-blend-mode:overlay;fill:#8c8c8c"/><path d="M637.18,444.82c21.09,9.51,46.23-.61,46.23-0.61s-9.05-25.54-30.14-35.05c-16.23-7.32-34.86-3-42.58-.64a3.51,3.51,0,0,0-2.17,4.81C611.84,420.69,620.95,437.5,637.18,444.82Z" style="fill:url(#radial-gradient-27)"/><path d="M637.18,444.82c21.09,9.51,46.23-.61,46.23-0.61s-9.05-25.54-30.14-35.05c-16.23-7.32-34.86-3-42.58-.64a3.51,3.51,0,0,0-2.17,4.81C611.84,420.69,620.95,437.5,637.18,444.82Zm27.71-2.72a50.26,50.26,0,0,1-26-3.85c-13.57-5.88-22.06-16.46-25.82-22-3-4.49-2.48-6.31,4-7.67,10.11-2.11,20.91-3.26,33.53,1.71,11.72,4.61,17.79,13.64,20.73,18.51C675.37,435.42,673,441.09,664.89,442.1Z" style="mix-blend-mode:multiply;fill:#e6cfd5"/><path d="M618.24,409.49c4.1-1,17.23-3,27.16.28a36.72,36.72,0,0,1,19.79,16.4c3.07,5.23,1.24,10-4.36,10.49-6.74.58-14.25,0.94-24.35-4.09a68.49,68.49,0,0,1-21.2-15.86C612.21,413.39,613.31,410.69,618.24,409.49Z" style="mix-blend-mode:overlay;fill:#8c8c8c"/><g style="mix-blend-mode:screen"><ellipse cx="625.26" cy="411.3" rx="6.53" ry="2.02" transform="rotate(-5.72 625.497 411.414)" style="fill:#595959;mix-blend-mode:overlay"/></g><ellipse cx="633.48" cy="433.54" rx=".95" ry="3.88" transform="rotate(-58.3 633.415 433.532)" style="mix-blend-mode:multiply;fill:#e6cfd5"/><path d="M654.08,431c5.49-4.67,8.48-15,3-19.86h0a56.08,56.08,0,0,1,16.78,15.66h0c-4.51-5.55-40,15.72-28.24,20.83a44,44,0,0,1-8.44-2.79,45.28,45.28,0,0,1-10.08-6.33C633.8,442.51,647.56,436.53,654.08,431Z" style="mix-blend-mode:overlay;fill:#8c8c8c"/><path d="M642.68,422.33c13.83,18.54,40.73,21.88,40.73,21.88s4.46-26.73-9.37-45.27c-10.65-14.27-29-19.53-36.93-21.2a3.51,3.51,0,0,0-4.23,3.16C632.22,388.95,632,408.06,642.68,422.33Z" style="fill:url(#radial-gradient-28)"/><path d="M642.68,422.33c13.83,18.54,40.73,21.88,40.73,21.88s4.46-26.73-9.37-45.27c-10.65-14.27-29-19.53-36.93-21.2a3.51,3.51,0,0,0-4.23,3.16C632.22,388.95,632,408.06,642.68,422.33Zm25.56,11.05a50.26,50.26,0,0,1-20.86-16c-9-11.73-11.32-25.09-11.92-31.77-0.48-5.4.89-6.72,7.23-4.76,9.86,3.06,19.87,7.29,28.5,17.75,8,9.72,8.95,20.56,9.16,26.24C680.64,432.63,675.8,436.42,668.24,433.39Z" style="mix-blend-mode:multiply;fill:#e6cfd5"/><path d="M643.25,382.25c4.07,1.11,16.52,5.73,23.62,13.41a36.72,36.72,0,0,1,9.36,23.93c0.15,6.06-3.77,9.36-8.89,7.06-6.17-2.76-12.92-6.09-19.32-15.38a68.49,68.49,0,0,1-10.86-24.15C636.08,382.74,638.35,380.91,643.25,382.25Z" style="mix-blend-mode:overlay;fill:#8c8c8c"/><g style="mix-blend-mode:screen"><ellipse cx="648.51" cy="387.24" rx="2.02" ry="6.53" transform="rotate(-66.72 648.552 387.235)" style="fill:#8c8c8c"/><ellipse cx="660.06" cy="392.79" rx="1.42" ry="3.64" transform="rotate(-54.11 660.123 392.792)" style="fill:#8c8c8c"/></g><ellipse cx="659.74" cy="426.52" rx=".95" ry="3.88" transform="rotate(-54.32 659.672 426.516)" style="mix-blend-mode:multiply;fill:#e6cfd5"/><path d="M664.17,418.42c7.07-1.42,14.67-9,12.25-15.92h0a56.08,56.08,0,0,1,7.08,21.83h0c-1.25-7-42.64-5.66-34.8,4.53a44,44,0,0,1-6-6.53,45.28,45.28,0,0,1-5.75-10.42C640.84,418.67,655.78,420.11,664.17,418.42Z" style="mix-blend-mode:overlay;fill:#8c8c8c"/><circle cx="646.11" cy="351.68" r="6.64" transform="rotate(-36.72 646.195 351.689)" style="fill:url(#radial-gradient-29)"/><path d="M640.79,355.65a6.64,6.64,0,1,0,1.35-9.29A6.64,6.64,0,0,0,640.79,355.65Zm1.57-2.13a4.87,4.87,0,1,1,6.82,1A4.87,4.87,0,0,1,642.36,353.52Z" style="mix-blend-mode:multiply;fill:#e6cfd5"/><circle cx="646.33" cy="349.36" r="3.33" transform="rotate(-36.72 646.413 349.37)" style="mix-blend-mode:overlay;fill:#8c8c8c"/><circle cx="646.52" cy="348.06" r="1.73" transform="rotate(-36.72 646.622 348.084)" style="fill:#8c8c8c;mix-blend-mode:screen"/><ellipse cx="643.94" cy="354.22" rx=".3" ry=".95" transform="rotate(-58.29 643.92 354.22)" style="mix-blend-mode:multiply;fill:#e6cfd5"/><path d="M641,347.45c-0.58,1.25,2.83,3.51,4.62,4.14s6.67,1.4,7.05-1a6.64,6.64,0,0,1-3.65,7c2.73-2.91-7.68-9.3-9.55-6A6.64,6.64,0,0,1,641,347.45Z" style="mix-blend-mode:overlay;fill:#8c8c8c"/><circle cx="605.33" cy="382.1" r="6.64" transform="rotate(-36.72 605.405 382.121)" style="fill:url(#radial-gradient-30)"/><path d="M600,386.07a6.64,6.64,0,1,0,1.35-9.29A6.64,6.64,0,0,0,600,386.07Zm1.57-2.13a4.87,4.87,0,1,1,6.82,1A4.87,4.87,0,0,1,601.58,383.95Z" style="mix-blend-mode:multiply;fill:#e6cfd5"/><circle cx="605.55" cy="379.78" r="3.33" transform="rotate(-36.72 605.638 379.807)" style="mix-blend-mode:overlay;fill:#8c8c8c"/><circle cx="605.74" cy="378.49" r="1.73" transform="rotate(-36.72 605.817 378.512)" style="fill:#8c8c8c;mix-blend-mode:screen"/><ellipse cx="606.64" cy="385.17" rx=".95" ry=".3" transform="rotate(-15.64 606.72 385.226)" style="mix-blend-mode:multiply;fill:#e6cfd5"/><path d="M600.21,377.88c-0.58,1.25,2.83,3.51,4.63,4.14s6.67,1.4,7.05-1a6.64,6.64,0,0,1-3.65,7c2.73-2.91-7.68-9.3-9.55-6A6.64,6.64,0,0,1,600.21,377.88Z" style="mix-blend-mode:overlay;fill:#8c8c8c"/><path d="M764,591.44c-18.71,23.62-53.84,26.95-53.84,26.95s-4.8-35,13.9-58.58c14.39-18.17,38.52-24.34,48.87-26.21a4.58,4.58,0,0,1,5.39,4.27C778.91,548.37,778.44,573.26,764,591.44Z" style="fill:url(#radial-gradient-31)"/><ellipse cx="723.79" cy="567.79" rx="3.24" ry=".67" transform="rotate(-64.7 723.734 567.78)" style="mix-blend-mode:multiply;fill:#e6cfd5"/><path d="M778.36,537.86A4.58,4.58,0,0,0,773,533.6c-10.35,1.87-34.48,8-48.87,26.21-18.71,23.62-13.9,58.58-13.9,58.58s35.13-3.33,53.84-26.95C778.44,573.26,778.91,548.37,778.36,537.86ZM714.9,593.35c0.49-7.39,2.11-21.47,12.91-33.81,11.63-13.3,24.81-18.43,37.77-22,8.33-2.32,10.07-.55,9.24,6.46-1,8.67-4.52,26-16.71,40.91a65.45,65.45,0,0,1-27.76,20C720.39,608.53,714.23,603.41,714.9,593.35Z" style="mix-blend-mode:multiply;fill:#e6cfd5"/><path d="M764.81,539.24c-5.34,1.3-21.72,6.84-31.25,16.57s-12.61,22-13.08,30.8c-0.42,7.88,4.55,12.32,11.31,9.53,8.14-3.37,17-7.44,25.73-19.29a89.19,89.19,0,0,0,15-31C774.12,540.15,771.24,537.68,764.81,539.24Z" style="mix-blend-mode:overlay;fill:#8c8c8c"/><path d="M736.22,585.54c-9.15-2.12-18.76-12.23-15.35-21.18h0c-5.75,9-8.65,19.13-10,28.15h0c1.9-9.12,55.72-5.77,45.13,7.21a57.28,57.28,0,0,0,8.09-8.28,59,59,0,0,0,7.88-13.35C766.57,586.74,747.08,588.06,736.22,585.54Z" style="mix-blend-mode:overlay;fill:#8c8c8c"/><path d="M763.15,647.05c-30.08-1.79-52.95-28.66-52.95-28.66s25.89-24,56-22.19c23.14,1.38,42,17.61,49.49,25a4.58,4.58,0,0,1-.41,6.86C807,634.54,786.29,648.43,763.15,647.05Z" style="fill:url(#radial-gradient-32)"/><path d="M815.26,628.07a4.58,4.58,0,0,0,.41-6.86c-7.47-7.41-26.35-23.64-49.49-25-30.08-1.79-56,22.19-56,22.19s22.87,26.88,52.95,28.66C786.29,648.43,807,634.54,815.26,628.07Zm-81.85-20.19c6.34-3.84,18.8-10.57,35.11-8.81,17.57,1.9,29.32,9.77,39.71,18.31,6.68,5.5,6.23,7.93,0,11.27-7.7,4.13-23.88,11.19-43.1,9.76a65.45,65.45,0,0,1-32.29-11.28C724.12,621.09,724.79,613.1,733.41,607.88Z" style="mix-blend-mode:multiply;fill:#e6cfd5"/><path d="M770.41,617.79c-27.17,13-60.2.6-60.2,0.6s11-33.53,38.19-46.54c20.91-10,45.29-5,55.42-2.11a4.58,4.58,0,0,1,3,6.2C802.66,585.61,791.32,607.77,770.41,617.79Z" style="fill:url(#radial-gradient-33)"/><path d="M806.78,575.93a4.58,4.58,0,0,0-3-6.2c-10.13-2.86-34.51-7.9-55.42,2.11-27.17,13-38.19,46.54-38.19,46.54s33,12.42,60.2-.6C791.32,607.77,802.66,585.61,806.78,575.93Zm-81.38,22c3.68-6.43,11.32-18.36,26.44-24.72,16.29-6.85,30.38-5.67,43.61-3.23,8.51,1.57,9.29,3.92,5.46,9.86-4.73,7.34-15.46,21.37-33,29.43a65.45,65.45,0,0,1-33.71,5.79C723.68,614,720.4,606.7,725.41,598Z" style="mix-blend-mode:multiply;fill:#e6cfd5"/><path d="M748,600.28c-7.29-5.92-11.49-19.22-4.5-25.77h0c-9.12,5.57-16.17,13.39-21.37,20.89h0c5.71-7.37,52.6,19.26,37.39,26.28a57.28,57.28,0,0,0,10.9-3.89,59,59,0,0,0,12.94-8.54C774.74,614.68,756.64,607.31,748,600.28Z" style="mix-blend-mode:overlay;fill:#8c8c8c"/><path d="M569.06,660.89c-11.07-31.94-44.8-53-72.89-55.29l-0.26,5.07C522.2,611.44,556.35,629.73,569.06,660.89Z" style="fill:url(#radial-gradient-34)"/><path d="M539.33,624c-7.78-7.1-19.9-13.59-30.7-13.82C522.76,614.07,531.43,619.74,539.33,624Z" style="mix-blend-mode:screen;fill:gray"/><path d="M607.72,615.09c-32.72-7.27-56.59-37.75-61.79-63.69l-5,1.11C548,579.8,574.36,609.54,607.72,615.09Z" style="fill:url(#radial-gradient-35)"/><path d="M547.33,562.25c0.87,9.93,10.41,22.81,18.42,29C561.2,585.52,551,572.93,547.33,562.25Z" style="mix-blend-mode:screen;fill:gray"/><path d="M576,626c13.49,30.58,50.29,44,50.29,44s14.92-36.2,1.42-66.78c-10.38-23.53-34.56-36.88-45.16-41.78a5.08,5.08,0,0,0-7,3.08C572,575.6,565.58,602.45,576,626Z" style="fill:url(#radial-gradient-36)"/><ellipse cx="625.78" cy="611.83" rx=".74" ry="3.6" transform="rotate(-10.73 625.951 611.955)" style="mix-blend-mode:multiply;fill:#e6cfd5"/><path d="M576,626c13.49,30.58,50.29,44,50.29,44s14.92-36.2,1.42-66.78c-10.38-23.53-34.56-36.88-45.16-41.78a5.08,5.08,0,0,0-7,3.08C572,575.6,565.58,602.45,576,626Zm32.42,23.82a72.61,72.61,0,0,1-24.22-29.21c-8.91-19.42-7.83-39-6.52-48.59,1.06-7.77,3.42-9.18,11.72-4.36,12.9,7.49,25.63,16.68,34.4,34.2,8.15,16.27,6,31.84,4.43,39.91C626.1,652.74,618.06,656.53,608.38,649.81Z" style="mix-blend-mode:multiply;fill:#e6cfd5"/><path d="M589.7,569.73c5.37,2.88,21.41,13.41,28.93,26.52S626,623.37,624.08,633c-1.75,8.58-8.33,12-14.81,7.07-7.8-5.89-16.23-12.75-22.24-27.9-7.08-17.84-7.38-30.58-7.49-37.51C579.45,568.11,583.24,566.26,589.7,569.73Z" style="mix-blend-mode:overlay;fill:#8c8c8c"/><g style="mix-blend-mode:screen"><ellipse cx="594.82" cy="578.2" rx="3.2" ry="11.98" transform="rotate(-53.81 594.797 578.195)" style="fill:#8c8c8c"/></g><ellipse cx="598.63" cy="637.4" rx="1.38" ry="5.61" transform="rotate(-41.4 598.656 637.41)" style="mix-blend-mode:multiply;fill:#e6cfd5"/><path d="M607.48,627.42c10.41,0.28,23.56-7.89,22.4-18.46h0c3.66,11.28,4,23,2.93,33h0c0.51-10.32-58.22-21.74-50.47-4.86A63.56,63.56,0,0,1,576,626a65.42,65.42,0,0,1-4.73-16.54C574.56,620.24,595.12,627.09,607.48,627.42Z" style="mix-blend-mode:overlay;fill:#8c8c8c"/><path d="M588.59,702c32.79,6.48,37.65-32,37.65-32s-21.11-33-53.9-39.45c-25.23-5-50,7.18-60.12,13a5.08,5.08,0,0,0-1.48,7.48C517.85,660.29,563.36,697,588.59,702Z" style="fill:url(#radial-gradient-37)"/><path d="M588.59,702c32.79,6.48,37.65-32,37.65-32s-21.11-33-53.9-39.45c-25.23-5-50,7.18-60.12,13a5.08,5.08,0,0,0-1.48,7.48C517.85,660.29,563.36,697,588.59,702Zm10.91-29c-5.16,1.9,7.73,22.49-10.62,19.14-21-3.83-63.63-32-70.75-38.56-5.75-5.32-5.56-8.07,3.15-12.11,13.53-6.28,28.36-11.44,47.75-8.58,18,2.65,29.51,13.37,35.24,19.25C612.07,660.21,610.55,669,599.5,673Z" style="mix-blend-mode:multiply;fill:#e6cfd5"/><path d="M523.18,642.44c5.44-2.75,23.26-9.86,38.31-8.5s26.47,9.48,33.21,16.59c6,6.35,5,13.68-2.69,16.19-9.3,3-19.75,6-35.6,2.23-18.68-4.43-29.29-11.49-35-15.37C516,649.91,516.63,645.75,523.18,642.44Z" style="mix-blend-mode:overlay;fill:#8c8c8c"/><g style="mix-blend-mode:screen"><ellipse cx="533.65" cy="642.68" rx="9.43" ry="2.92" transform="rotate(-18.83 533.603 642.637)" style="fill:#595959;mix-blend-mode:overlay"/></g><path d="M580.64,660.94c6.2-8.37,7-23.83-2.29-28.93h0c11.34,3.46,21.07,9.92,28.74,16.54h0c-8.17-6.34-24,51.28-5.72,54.61A63.55,63.55,0,0,1,588.59,702a65.41,65.41,0,0,1-16.26-5.6C583.08,699.85,573.29,670.88,580.64,660.94Z" style="mix-blend-mode:overlay;fill:#8c8c8c"/><path d="M561.77,652.51C587.31,674.07,626.25,670,626.25,670s-2.48-39.07-28-60.63c-19.65-16.59-47.24-18-58.91-17.74a5.08,5.08,0,0,0-4.92,5.83C536.12,609,542.12,635.91,561.77,652.51Z" style="fill:url(#radial-gradient-38)"/><path d="M561.77,652.51C587.31,674.07,626.25,670,626.25,670s-2.48-39.07-28-60.63c-19.65-16.59-47.24-18-58.91-17.74a5.08,5.08,0,0,0-4.92,5.83C536.12,609,542.12,635.91,561.77,652.51Zm39.59,7.18a72.62,72.62,0,0,1-34.58-15.62c-16.53-13.54-24.14-31.6-27.17-40.8-2.45-7.45-1-9.75,8.62-9.06,14.88,1.07,30.35,3.74,45.92,15.64,14.46,11,19.33,26,21.49,33.92C618.57,654.55,613,661.48,601.36,659.69Z" style="mix-blend-mode:multiply;fill:#e6cfd5"/><path d="M549.44,595.92c6.09,0.23,25.13,2.66,37.63,11.14s18.55,21.12,21,30.61c2.19,8.48-2.24,14.4-10.2,12.85-9.59-1.87-20.18-4.34-32.22-15.31-14.19-12.93-20.05-24.25-23.19-30.42C539.51,599,542.11,595.64,549.44,595.92Z" style="mix-blend-mode:overlay;fill:#8c8c8c"/><g style="mix-blend-mode:screen"><ellipse cx="558.48" cy="601.21" rx="2.92" ry="9.43" transform="rotate(-79.83 558.483 601.218)" style="fill:#8c8c8c"/><ellipse cx="576.55" cy="605.24" rx="2.05" ry="5.26" transform="rotate(-67.22 576.566 605.243)" style="fill:#8c8c8c"/></g><path d="M590.73,640c9.48-4.32,17.71-17.43,12-26.42h0c8.24,8.53,13.62,18.89,17.12,28.4h0c-4.07-9.5-61.86,6-47.48,17.78a63.55,63.55,0,0,1-10.62-7.22,65.42,65.42,0,0,1-11.51-12.78C558,648,579.48,645.09,590.73,640Z" style="mix-blend-mode:overlay;fill:#8c8c8c"/><circle cx="543.46" cy="551.96" r="9.59" transform="rotate(-49.83 543.468 551.971)" style="fill:url(#radial-gradient-39)"/><path d="M537.27,559.29a9.59,9.59,0,1,0-1.14-13.52A9.59,9.59,0,0,0,537.27,559.29Zm1.52-3.51a7,7,0,1,1,9.92-.84A7,7,0,0,1,538.79,555.78Z" style="mix-blend-mode:multiply;fill:#e6cfd5"/><circle cx="543.01" cy="548.63" r="4.81" transform="rotate(-49.83 543.005 548.628)" style="mix-blend-mode:overlay;fill:#8c8c8c"/><circle cx="542.85" cy="546.74" r="2.49" transform="rotate(-49.83 542.86 546.742)" style="fill:#8c8c8c;mix-blend-mode:screen"/><ellipse cx="541.24" cy="556.25" rx=".44" ry="1.37" transform="rotate(-71.3 541.626 554.67)" style="mix-blend-mode:multiply;fill:#e6cfd5"/><path d="M534.86,547.7c-0.41,2,5.14,4,7.86,4.31s9.85-.22,9.6-3.7a9.59,9.59,0,0,1-2.82,11.1c2.88-5-13.85-10.58-15.4-5.35A9.6,9.6,0,0,1,534.86,547.7Z" style="mix-blend-mode:overlay;fill:#8c8c8c"/><circle cx="496.04" cy="608.14" r="9.59" transform="rotate(-49.83 496.047 608.137)" style="fill:url(#radial-gradient-40)"/><path d="M489.85,615.47a9.59,9.59,0,1,0-1.14-13.52A9.59,9.59,0,0,0,489.85,615.47Zm1.52-3.51a7,7,0,1,1,9.92-.84A7,7,0,0,1,491.37,612Z" style="mix-blend-mode:multiply;fill:#e6cfd5"/><circle cx="495.59" cy="604.8" r="4.81" transform="rotate(-49.83 495.606 604.804)" style="mix-blend-mode:overlay;fill:#8c8c8c"/><circle cx="495.43" cy="602.92" r="2.49" transform="rotate(-49.83 495.424 602.914)" style="fill:#8c8c8c;mix-blend-mode:screen"/><ellipse cx="498.89" cy="612.02" rx="1.37" ry=".44" transform="rotate(-28.75 498.827 611.973)" style="mix-blend-mode:multiply;fill:#e6cfd5"/><path d="M487.45,603.87c-0.41,2,5.14,4,7.86,4.31s9.85-.22,9.6-3.7a9.59,9.59,0,0,1-2.82,11.1c2.88-5-13.85-10.58-15.4-5.35A9.6,9.6,0,0,1,487.45,603.87Z" style="mix-blend-mode:overlay;fill:#8c8c8c"/><path d="M580.47 479.75c9.18 44.87 31.73 71.17 61.81 102.28C608.34 558.54 580.71 520.89 580.47 479.75ZM623.77 494c7 18.92 30.09 66.58 46.13 88.07C646.17 562.5 625.64 513.94 623.77 494ZM652.2 191.22c11.31 24.65 30.68 64.42 33.28 91.5C675.79 255.58 656.56 215.51 652.2 191.22ZM710 208.67c5.67 23.8 6.33 89.42-4.2 117.52C709.43 300.66 710.29 216.4 710 208.67Z" style="fill:#528065"/><path d="M546.71 588c30.27-1.12 61 16.12 69.38 45C598.45 606 580.29 596.22 546.71 588ZM542.58 639.64c25.53 16.71 40.27 21.67 56 28.91C579.17 667.46 554.06 655.82 542.58 639.64ZM618 579.75c16.81 17.67 24.11 51 12 78.48C633.34 630.09 631.88 607.44 618 579.75ZM705.19 611.25c-4.8-37.67 14.11-63.76 41.52-72a106.51 106.51 0 0 0-17.42 13.23C710 571.31 707.88 593.32 705.19 611.25ZM723.61 625.31c19.31-5.39 38.34-1.62 66.41-22.61-10.8 15.93-28.86 22.38-48.24 23.06C735.68 626 729.68 625.66 723.61 625.31ZM608.51 413.33c6.21 14.15 18.06 25.48 36.11 31.56a141.77 141.77 0 0 0 16.45 3.92C630.06 453.48 609.24 430.65 608.51 413.33ZM655 381.68c18.14 2.59 31.09 22.59 28.53 42.66C678.08 407.53 674.34 394.34 655 381.68ZM639.7 417.74c15.18 15 24.77 18 35.48 24.72C660.46 442.08 643.45 431.79 639.7 417.74ZM692.11 380.08c9.51 13.24 9.71 42.54-.84 56.9C695.47 418.42 695.11 393.92 692.11 380.08Z" style="fill:#994d60"/></g></g></svg>