<svg xmlns="http://www.w3.org/2000/svg" id="_9" width="800" height="501" viewBox="0 -.5 800 501"><defs/><path d="m0,40.5l26.7-4.2c26.6-4.1,80-12.5,133.3-5.8,53.3,6.7,106.7,28.3,160,41.7,53.3,13.3,106.7,18.3,160,29.1,53.3,10.9,106.7,27.5,160,33.4,53.3,5.8,106.7.8,133.3-1.7l26.7-2.5V-.5H0v41Z" style="fill:#bb8bf9"/><path d="m0,45.5l26.7,10c26.6,10,80,30,133.3,38.3,53.3,8.4,106.7,5,160,12.5,53.3,7.5,106.7,25.9,160,38.4s106.7,19.1,160,22.5c53.3,3.3,106.7,3.3,133.3,3.3h26.7v-42l-26.7,2.5c-26.6,2.5-80,7.5-133.3,1.7-53.3-5.9-106.7-22.5-160-33.4-53.3-10.8-106.7-15.8-160-29.1-53.3-13.4-106.7-35-160-41.7-53.3-6.7-106.7,1.7-133.3,5.8L0,38.5v7Z" style="fill:#a768f8"/><path d="m0,55.5l26.7,11.7c26.6,11.6,80,35,133.3,47.5,53.3,12.5,106.7,14.1,160,25.8,53.3,11.7,106.7,33.3,160,45.8s106.7,15.9,160,17.5c53.3,1.7,106.7,1.7,133.3,1.7h26.7v-37h-26.7c-26.6,0-80,0-133.3-3.3-53.3-3.4-106.7-10-160-22.5s-106.7-30.9-160-38.4c-53.3-7.5-106.7-4.1-160-12.5-53.3-8.3-106.7-28.3-133.3-38.3L0,43.5v12Z" style="fill:#8e49e8"/><path d="m0,90.5l26.7,13.3c26.6,13.4,80,40,133.3,55,53.3,15,106.7,18.4,160,28.4,53.3,10,106.7,26.6,160,31.6s106.7-1.6,160-1.6,106.7,6.6,133.3,10l26.7,3.3v-27h-26.7c-26.6,0-80,0-133.3-1.7-53.3-1.6-106.7-5-160-17.5s-106.7-34.1-160-45.8c-53.3-11.7-106.7-13.3-160-25.8-53.3-12.5-106.7-35.9-133.3-47.5L0,53.5v37Z" style="fill:#753ac2"/><path d="m0,265.5l26.7-4.2c26.6-4.1,80-12.5,133.3-16.6,53.3-4.2,106.7-4.2,160,13.3,53.3,17.5,106.7,52.5,160,59.2,53.3,6.6,106.7-15,160-7.5,53.3,7.5,106.7,44.1,133.3,62.5l26.7,18.3v-162l-26.7-3.3c-26.6-3.4-80-10-133.3-10s-106.7,6.6-160,1.6-106.7-21.6-160-31.6c-53.3-10-106.7-13.4-160-28.4-53.3-15-106.7-41.6-133.3-55L0,88.5v177Z" style="fill:#7137bb"/><path d="m0,315.5l26.7-10.8c26.6-10.9,80-32.5,133.3-35.9,53.3-3.3,106.7,11.7,160,29.2,53.3,17.5,106.7,37.5,160,47.5s106.7,10,160,22.5c53.3,12.5,106.7,37.5,133.3,50l26.7,12.5v-42l-26.7-18.3c-26.6-18.4-80-55-133.3-62.5-53.3-7.5-106.7,14.1-160,7.5-53.3-6.7-106.7-41.7-160-59.2-53.3-17.5-106.7-17.5-160-13.3-53.3,4.1-106.7,12.5-133.3,16.6l-26.7,4.2v52Z" style="fill:#753ac2"/><path d="m0,390.5l26.7-11.7c26.6-11.6,80-35,133.3-44.1,53.3-9.2,106.7-4.2,160,10,53.3,14.1,106.7,37.5,160,43.3,53.3,5.8,106.7-5.8,160,4.2,53.3,10,106.7,41.6,133.3,57.5l26.7,15.8v-37l-26.7-12.5c-26.6-12.5-80-37.5-133.3-50-53.3-12.5-106.7-12.5-160-22.5s-106.7-30-160-47.5c-53.3-17.5-106.7-32.5-160-29.2-53.3,3.4-106.7,25-133.3,35.9l-26.7,10.8v77Z" style="fill:#8e49e8"/><path d="m0,455.5l26.7,5c26.6,5,80,15,133.3,20,53.3,5,106.7,5,160,5s106.7,0,160,.8c53.3.9,106.7,2.5,160,3.4,53.3.8,106.7.8,133.3.8h26.7v-27l-26.7-15.8c-26.6-15.9-80-47.5-133.3-57.5-53.3-10-106.7,1.6-160-4.2-53.3-5.8-106.7-29.2-160-43.3-53.3-14.2-106.7-19.2-160-10-53.3,9.1-106.7,32.5-133.3,44.1l-26.7,11.7v67Z" style="fill:#a768f8"/><path d="m0,500.5h800v-12h-26.7c-26.6,0-80,0-133.3-.8-53.3-.9-106.7-2.5-160-3.4-53.3-.8-106.7-.8-160-.8s-106.7,0-160-5c-53.3-5-106.7-15-133.3-20l-26.7-5v47Z" style="fill:#bb8bf9"/></svg>