<!-- icon666.com - MILLIONS vector ICONS FREE --><svg viewBox="-17 0 512 512" xmlns="http://www.w3.org/2000/svg"><path d="m477.921875 273.039062c0 131.972657-106.988281 238.960938-238.960937 238.960938-131.972657 0-238.960938-106.988281-238.960938-238.960938 0-131.972656 106.988281-238.960937 238.960938-238.960937 131.972656 0 238.960937 106.988281 238.960937 238.960937zm0 0" fill="#79cdf7"></path><path d="m385.421875 249.539062c-6.390625-.519531-12.269531 1.617188-16.671875 5.421876-2.746094 2.375-6.773438 2.285156-9.53125-.074219-3.953125-3.378907-9.082031-5.425781-14.695312-5.425781-5.609376 0-10.738282 2.042968-14.691407 5.425781-2.789062 2.386719-6.828125 2.386719-9.621093 0-3.953126-3.382813-9.078126-5.425781-14.691407-5.425781s-10.738281 2.046874-14.695312 5.425781c-2.753907 2.359375-6.78125 2.445312-9.527344.074219-4.402344-3.804688-10.28125-5.941407-16.671875-5.421876-2.816406.226563-5.492188 1-7.941406 2.1875l58.34375-116.6875c3.472656-6.949218 13.386718-6.949218 16.863281 0l57.613281 115.226563c-1.320312-.363281-2.683594-.613281-4.082031-.726563zm0 0" fill="#60d882"></path><path d="m315.027344 135.039062-58.34375 116.6875c2.449218-1.1875 5.125-1.960937 7.941406-2.1875 6.390625-.519531 12.269531 1.617188 16.671875 5.421876 2.746094 2.371093 6.773437 2.285156 9.527344-.074219 3.957031-3.378907 9.082031-5.425781 14.695312-5.425781 5.132813 0 9.84375 1.722656 13.636719 4.597656-.273438-.996094-.574219-2-.90625-3.011719-21.148438-64.566406 13.636719-116.011719 13.636719-116.011719-3.472657-6.945312-13.386719-6.945312-16.859375.003906zm0 0" fill="#37c47a"></path><path d="m407.6875 380.46875c-2.453125 2.230469-6.550781 2.085938-9.023438-.121094-3.976562-3.554687-9.21875-5.71875-14.976562-5.71875s-11.003906 2.164063-14.980469 5.722656c-2.613281 2.339844-6.53125 2.339844-9.144531 0-3.980469-3.554687-9.226562-5.722656-14.984375-5.722656s-11.003906 2.164063-14.984375 5.722656c-2.613281 2.339844-6.527344 2.339844-9.144531 0-3.976563-3.554687-9.222657-5.722656-14.980469-5.722656s-11.003906 2.164063-14.984375 5.722656c-2.613281 2.339844-6.53125 2.339844-9.144531 0-3.976563-3.554687-9.222656-5.722656-14.984375-5.722656-5.753907 0-11 2.164063-14.976563 5.71875-2.472656 2.210938-6.566406 2.351563-9.019531.125-4.675781-4.253906-11.148437-6.5625-18.152344-5.644531-.417969.054687-.828125.140625-1.238281.21875l43.640625-87.285156c1.75.03125 3.179687 1.386719 3.179687 3.140625v6.40625c0 8.9375 7.457032 16.136718 16.488282 15.710937 8.460937-.398437 14.96875-7.683593 14.96875-16.152343v-5.988282c0-1.769531 1.457031-3.230468 3.226562-3.148437.347656.015625.695313.027343 1.046875.027343 4.460938 0 8.601563-1.308593 12.101563-3.535156h14.800781c3.503906 2.226563 7.644531 3.535156 12.101563 3.535156 4.460937 0 8.601562-1.308593 12.105468-3.535156h14.800782c2.601562 1.65625 5.558593 2.789063 8.738281 3.265625l43.585937 87.167969c-6.195312-.257812-11.859375 1.988281-16.066406 5.8125zm0 0" fill="#60d882"></path><path d="m281.339844 380.351562c2.613281 2.339844 6.53125 2.339844 9.144531 0 3.980469-3.558593 9.226563-5.722656 14.984375-5.722656s11.003906 2.164063 14.980469 5.722656c2.617187 2.339844 6.53125 2.339844 9.144531 0 3.980469-3.558593 9.226562-5.722656 14.984375-5.722656s11.007813 2.164063 14.984375 5.722656c1.746094 1.5625 4.070312 2.054688 6.199219 1.53125-1.710938-1.578124-3.511719-3.085937-5.433594-4.496093-47.773437-35.058594-42.089844-88.855469-42.089844-88.855469v-4.308594h-.617187c-3.5 2.226563-7.640625 3.535156-12.101563 3.535156-.351562 0-.699219-.011718-1.046875-.027343-1.769531-.082031-3.226562 1.378906-3.226562 3.148437v5.984375c0 8.46875-6.507813 15.757813-14.96875 16.15625-9.03125.425781-16.488282-6.773437-16.488282-15.710937v-6.40625c0-1.753906-1.429687-3.113282-3.175781-3.140625l-43.640625 87.28125c.410156-.078125.816406-.160157 1.234375-.214844 7.003907-.917969 13.476563 1.390625 18.15625 5.640625 2.453125 2.230469 6.546875 2.085938 9.015625-.121094 3.980469-3.554687 9.222656-5.71875 14.980469-5.71875s11.003906 2.164063 14.980469 5.722656zm0 0" fill="#37c47a"></path><path d="m304.355469 502.941406c12.976562-3.683594 25.5-8.445312 37.472656-14.164062v-87.632813h-37.472656zm0 0" fill="#e55a46"></path><path d="m304.355469 401.144531v65.71875c0-10.242187 8.304687-18.550781 18.550781-18.550781h.371094c10.246094 0 18.550781 8.304688 18.550781 18.550781v-65.71875zm0 0" fill="#cb3836"></path><path d="m204.875 390.996094c1.144531-10.136719 9.21875-18.375 19.332031-19.703125 7.003907-.917969 13.476563 1.390625 18.15625 5.644531 2.453125 2.226562 6.546875 2.085938 9.015625-.121094 3.980469-3.558594 9.222656-5.722656 14.980469-5.722656s11.003906 2.167969 14.980469 5.726562c2.613281 2.335938 6.53125 2.335938 9.144531 0 3.980469-3.558593 9.226563-5.726562 14.984375-5.726562s11.003906 2.167969 14.984375 5.726562c2.613281 2.335938 6.527344 2.335938 9.144531 0 3.976563-3.558593 9.222656-5.726562 14.980469-5.726562 5.761719 0 11.007813 2.167969 14.984375 5.726562 2.613281 2.335938 6.53125 2.335938 9.144531 0 3.976563-3.558593 9.222657-5.726562 14.980469-5.726562s11 2.167969 14.980469 5.722656c2.46875 2.207032 6.566406 2.347656 9.019531.121094 4.675781-4.25 11.148438-6.558594 18.152344-5.640625 10.117187 1.324219 18.191406 9.566406 19.335937 19.703125 1.53125 13.609375-9.078125 25.136719-22.375 25.136719-7.503906 0-12.269531-2.789063-14.699219-3.691407-1.949218-.722656-4.023437.683594-4.023437 2.761719v15.925781c0 8.40625-6.417969 15.664063-14.8125 16.132813-5.910156.332031-11.15625-2.613281-14.105469-7.179687-.253906-.394532-.679687-.644532-1.148437-.644532-.753907 0-1.363281.609375-1.363281 1.363282v17.785156c0 8.460937-6.503907 15.742187-14.957032 16.140625-9.023437.425781-16.472656-6.765625-16.472656-15.699219v-39.945312c0-1.652344-1.351562-2.992188-3.007812-2.957032-.171876.003906-.347657.007813-.523438.007813-5.761719 0-4.113281-2.164063-8.089844-5.722657-2.613281-2.339843-6.53125-2.339843-9.144531 0-3.976563 3.558594-9.222656 5.722657-14.980469 5.722657-5.761718 0-11.007812-2.164063-14.984375-5.722657-2.613281-2.339843-6.53125-2.339843-9.144531 0-3.980469 3.558594-9.226562 5.722657-14.984375 5.722657s-11.003906-2.164063-14.980469-5.722657c-2.617187-2.339843-6.53125-2.339843-9.144531 0-3.976563 3.558594-9.226563 5.722657-14.984375 5.722657-13.304688 0-23.910156-11.53125-22.375-25.140625zm0 0" fill="#fff"></path><path d="m400.042969 410.414062c-2.613281-2.339843-6.53125-2.339843-9.144531 0-3.976563 3.558594-9.222657 5.722657-14.984376 5.722657-20.308593 0-30.109374-24.78125-15.585937-38.75-.261719-.175781-.523437-.351563-.765625-.570313-8.535156-7.632812-21.433594-7.632812-29.964844 0-2.617187 2.339844-6.53125 2.339844-9.144531 0-8.539063-7.632812-21.433594-7.632812-29.96875 0-2.613281 2.339844-6.527344 2.339844-9.140625 0-8.535156-7.632812-21.425781-7.632812-29.960938-.003906-2.472656 2.210938-6.566406 2.351562-9.019531.125-13.566406-12.332031-35.449219-4-37.488281 14.058594-2.351562 20.851562 22.207031 32.96875 37.355469 19.414062 2.617187-2.335937 6.53125-2.335937 9.148437 0 8.53125 7.636719 21.429688 7.636719 29.964844 0 2.613281-2.335937 6.527344-2.335937 9.144531 0 8.535157 7.636719 21.429688 7.636719 29.964844 0 2.613281-2.335937 6.53125-2.335937 9.144531 0 4.078125 3.652344 2.25 5.867188 8.613282 5.71875 1.652343-.035156 3.007812 1.304688 3.007812 2.957032v39.945312c0 8.933594 7.449219 16.125 16.472656 15.699219 8.453125-.398438 14.957032-7.679688 14.957032-16.140625v-17.785156c0-.753907.609374-1.363282 1.363281-1.363282.46875 0 .894531.25 1.148437.644532 2.949219 4.566406 8.195313 7.507812 14.105469 7.179687 8.394531-.46875 14.8125-7.726563 14.8125-16.132813v-15.925781c0-.628906.203125-1.183593.523437-1.648437-1.648437-.863282-3.183593-1.914063-4.558593-3.144532zm0 0" fill="#e5e5e5"></path><path d="m243.980469 267.191406c1.179687-10.652344 9.96875-19.144531 20.652343-20.007812 6.386719-.519532 12.261719 1.621094 16.664063 5.421875 2.746094 2.375 6.773437 2.285156 9.527344-.074219 3.957031-3.378906 9.082031-5.425781 14.695312-5.425781s10.738281 2.042969 14.691407 5.421875c2.792968 2.390625 6.832031 2.390625 9.625 0 3.953124-3.378906 9.078124-5.421875 14.691406-5.421875 5.613281 0 10.738281 2.042969 14.695312 5.425781 2.753906 2.359375 6.78125 2.445312 9.527344.074219 4.402344-3.804688 10.28125-5.945313 16.675781-5.425781 10.679688.871093 19.460938 9.367187 20.640625 20.019531 1.515625 13.683593-9.15625 25.265625-22.535156 25.265625-5.613281 0-10.738281-2.042969-14.691406-5.425782-2.792969-2.386718-6.832032-2.386718-9.621094.003907-3.957031 3.378906-9.082031 5.421875-14.691406 5.421875-5.613282 0-10.738282-2.042969-14.691406-5.425782-2.792969-2.386718-6.832032-2.386718-9.625.003907-3.953126 3.378906-9.078126 5.421875-14.691407 5.421875-.351562 0-.699219-.007813-1.046875-.023438-1.769531-.085937-3.226562 1.375-3.226562 3.148438v5.984375c0 8.46875-6.507813 15.753906-14.96875 16.15625-9.03125.421875-16.488282-6.773438-16.488282-15.710938v-6.40625c0-1.777343-1.464843-3.152343-3.238281-3.148437-.011719 0-.023437 0-.03125 0-13.382812.003906-24.058593-11.585938-22.539062-25.273438zm0 0" fill="#fff"></path><path d="m308.460938 267.191406c.742187-6.679687 4.476562-12.507812 9.792968-16.140625-3.628906-2.480469-8.003906-3.945312-12.730468-3.945312-5.613282 0-10.742188 2.046875-14.695313 5.425781-2.757813 2.359375-6.785156 2.449219-9.53125.074219-4.402344-3.800781-10.273437-5.941407-16.664063-5.421875-10.679687.863281-19.46875 9.355468-20.652343 20.007812-1.519531 13.6875 9.15625 25.277344 22.539062 25.277344h.03125c1.773438-.003906 3.242188 1.371094 3.242188 3.144531v6.40625c0 8.9375 7.453125 16.136719 16.488281 15.710938 8.457031-.398438 14.964844-7.6875 14.964844-16.15625v-5.984375c0-1.769532 1.457031-3.230469 3.226562-3.148438.347656.015625.699219.027344 1.050782.027344 4.722656 0 9.089843-1.460938 12.714843-3.9375-6.644531-4.527344-10.761719-12.492188-9.777343-21.339844zm0 0" fill="#e5e5e5"></path><path d="m303.828125 475.421875c-4.210937-16.332031-19.035156-23.796875-19.183594-23.867187-4.300781-2.046876-6.125-7.191407-4.074219-11.488282 2.042969-4.296875 7.191407-6.121094 11.484376-4.074218.90625.429687 22.199218 10.820312 28.464843 35.125 1.1875 4.609374-1.585937 9.308593-6.195312 10.496093-4.636719 1.195313-9.316407-1.609375-10.496094-6.191406zm0 0" fill="#cb3836"></path><path d="m49.476562 382.558594c2.964844 2.460937 7.273438 2.65625 10.210938.160156 3.921875-3.332031 8.996094-5.34375 14.546875-5.34375 5.546875 0 10.621094 2.011719 14.542969 5.34375 2.867187 2.433594 7.15625 2.433594 10.023437 0 3.921875-3.332031 8.996094-5.34375 14.542969-5.34375 5.550781 0 10.625 2.011719 14.546875 5.34375 2.867187 2.433594 7.15625 2.433594 10.019531 0 3.921875-3.332031 8.996094-5.34375 14.546875-5.34375 5.546875 0 10.621094 2.011719 14.542969 5.34375 2.867188 2.433594 7.15625 2.433594 10.023438 0 3.917968-3.332031 8.996093-5.34375 14.542968-5.34375 5.550782 0 10.625 2.011719 14.546875 5.34375 2.863281 2.433594 7.152344 2.433594 10.019531 0 3.921876-3.332031 8.996094-5.34375 14.546876-5.34375 5.546874 0 10.621093 2.011719 14.542968 5.34375 2.867188 2.433594 7.15625 2.433594 10.019532 0 3.921874-3.332031 8.996093-5.34375 14.546874-5.34375 5.550782 0 10.625 2.011719 14.546876 5.34375 2.933593 2.496094 7.246093 2.300781 10.210937-.160156 4.605469-3.828125 10.761719-5.851563 17.394531-4.984375.277344.039062.550782.101562.828125.148437l-49.070312-98.140625c-2.816407-.792969-5.402344-2.125-7.65625-3.871093h-11.621094c-3.804687 2.945312-8.5625 4.710937-13.746094 4.710937-5.183593 0-9.941406-1.765625-13.742187-4.710937h-11.625c-3.800782 2.945312-8.558594 4.710937-13.742188 4.710937s-9.941406-1.765625-13.742187-4.710937h-11.625c-3.800781 2.945312-8.558594 4.710937-13.742188 4.710937-.175781 0-.351562 0-.527343-.007813-1.652344-.035156-3.007813 1.304688-3.007813 2.957032v39.949218c0 8.929688-7.449219 16.121094-16.472656 15.695313-8.453125-.398437-14.957031-7.679687-14.957031-16.140625v-17.78125c0-.753906-.609376-1.367188-1.363282-1.367188-.46875 0-.894531.25-1.148437.644532-2.949219 4.566406-8.195313 7.511718-14.105469 7.179687-8.394531-.46875-14.8125-7.726562-14.8125-16.132812v-13.625c0-1.449219-1.011719-2.554688-2.285156-2.855469l-49.222656 98.449219c5.679687-.144531 10.890624 1.824219 14.921874 5.171875zm0 0" fill="#37c47a"></path><path d="m149.550781 281.5625c-.390625.503906-.628906 1.125-.628906 1.808594.21875-.609375.421875-1.207032.628906-1.808594zm0 0" fill="#2bb381"></path><path d="m144.363281 334.363281c-3.011719 3.042969-7.25 4.871094-11.917969 4.652344-8.453124-.398437-14.957031-7.679687-14.957031-16.140625v-17.78125c0-.753906-.609375-1.367188-1.359375-1.367188-.472656 0-.894531.25-1.152344.644532-2.945312 4.566406-8.191406 7.511718-14.105468 7.179687-8.390625-.46875-14.808594-7.726562-14.808594-16.132812v-13.628907c0-1.449218-1.015625-2.550781-2.285156-2.855468l-49.226563 98.449218c5.683594-.140624 10.898438 1.828126 14.925781 5.175782 2.964844 2.460937 7.277344 2.65625 10.214844.160156 3.917969-3.332031 8.992188-5.34375 14.542969-5.34375s10.625 2.011719 14.546875 5.34375c2.863281 2.433594 7.152344 2.433594 10.019531 0 3.921875-3.332031 8.996094-5.34375 14.546875-5.34375 5.546875 0 10.621094 2.011719 14.542969 5.34375 2.867187 2.433594 7.15625 2.433594 10.019531 0 3.921875-3.332031 8.996094-5.34375 14.546875-5.34375 3.511719 0 6.828125.8125 9.789063 2.246094l1.015625-2.992188s-14.121094-16.210937-18.898438-42.265625zm0 0" fill="#2bb381"></path><path d="m111.609375 119.710938c6.390625-.519532 12.269531 1.621093 16.671875 5.425781 2.746094 2.371093 6.773438 2.28125 9.53125-.074219 3.953125-3.382812 9.082031-5.429688 14.695312-5.429688 5.609376 0 10.734376 2.042969 14.691407 5.425782 2.789062 2.386718 6.828125 2.386718 9.621093 0 3.953126-3.382813 9.078126-5.425782 14.691407-5.425782 5.609375 0 10.738281 2.046876 14.691406 5.429688 2.757813 2.355469 6.785156 2.445312 9.53125.074219 4.402344-3.808594 10.28125-5.945313 16.671875-5.425781 2.816406.230468 5.492188 1 7.941406 2.191406l-58.34375-116.691406c-3.472656-6.949219-13.386718-6.949219-16.859375 0l-57.617187 115.226562c1.320312-.363281 2.683594-.613281 4.082031-.726562zm0 0" fill="#60d882"></path><path d="m89.347656 250.640625c2.449219 2.230469 6.546875 2.085937 9.019532-.121094 3.976562-3.554687 9.222656-5.71875 14.976562-5.71875 5.757812 0 11.003906 2.164063 14.980469 5.722657 2.613281 2.339843 6.53125 2.339843 9.144531 0 3.976562-3.558594 9.226562-5.722657 14.984375-5.722657s11.003906 2.164063 14.984375 5.722657c2.613281 2.339843 6.527344 2.339843 9.140625 0 3.980469-3.558594 9.226563-5.722657 14.984375-5.722657s11.003906 2.164063 14.984375 5.722657c2.613281 2.339843 6.527344 2.339843 9.144531 0 3.976563-3.558594 9.222656-5.722657 14.984375-5.722657 5.753907 0 11 2.164063 14.976563 5.71875 2.46875 2.210938 6.566406 2.351563 9.019531.121094 4.675781-4.25 11.148437-6.558594 18.152344-5.640625.417969.054688.828125.136719 1.238281.214844l-43.640625-87.28125c-1.75.03125-3.179687 1.386718-3.179687 3.140625v6.40625c0 8.9375-7.457032 16.136719-16.488282 15.710937-8.460937-.398437-14.96875-7.6875-14.96875-16.15625v-5.984375c0-1.769531-1.457031-3.230469-3.226562-3.148437-.347656.015625-.695313.027344-1.046875.027344-4.460938 0-8.601563-1.308594-12.101563-3.535157h-14.800781c-3.503906 2.226563-7.644531 3.535157-12.101563 3.535157-4.460937 0-8.601562-1.308594-12.105468-3.535157h-14.800782c-2.601562 1.65625-5.558593 2.789063-8.738281 3.261719l-43.585937 87.171875c6.199218-.253906 11.859375 1.988281 16.070312 5.8125zm0 0" fill="#37c47a"></path><path d="m161.992188 243.40625c-24.90625-52.210938 1.488281-83.625 1.488281-83.625l-.304688-4.550781c-3.175781 1.714843-6.804687 2.699219-10.667969 2.699219-4.460937 0-8.601562-1.308594-12.105468-3.53125h-14.800782c-2.601562 1.652343-5.558593 2.785156-8.738281 3.261718l-43.585937 87.167969c6.195312-.253906 11.859375 1.988281 16.066406 5.816406 2.453125 2.226563 6.550781 2.085938 9.019531-.125 3.980469-3.554687 9.222657-5.71875 14.980469-5.71875s11.003906 2.167969 14.980469 5.726563c2.613281 2.335937 6.53125 2.335937 9.144531-.003906 3.980469-3.554688 9.226562-5.722657 14.984375-5.722657 4.105469 0 7.941406 1.117188 11.253906 3.039063-.460937-1.496094-1.019531-2.980469-1.714843-4.433594zm0 0" fill="#2bb381"></path><path d="m147.085938 493.6875c15.828124 6.597656 32.511718 11.550781 49.847656 14.625v-107.167969h-49.847656zm0 0" fill="#e55a46"></path><path d="m147.085938 401.144531v69.363281c0-13.730468 11.132812-24.863281 24.859374-24.863281h.125c13.730469 0 24.859376 11.132813 24.859376 24.863281v-69.363281zm0 0" fill="#cb3836"></path><path d="m146.222656 475.371094c-4.109375-16.34375-18.523437-23.78125-18.667968-23.855469-4.277344-2.085937-6.050782-7.246094-3.960938-11.523437 2.085938-4.277344 7.25-6.054688 11.523438-3.964844.882812.433594 21.710937 10.847656 27.820312 35.136718 1.164062 4.617188-1.640625 9.300782-6.253906 10.460938-4.617188 1.164062-9.300782-1.640625-10.460938-6.253906zm0 0" fill="#cb3836"></path><path d="m331.269531 393.753906c-1.140625-10.140625-9.214843-18.382812-19.332031-19.710937-6.632812-.871094-12.789062 1.15625-17.398438 4.984375-2.964843 2.460937-7.273437 2.65625-10.210937.160156-3.921875-3.332031-8.992187-5.34375-14.542969-5.34375-5.550781 0-10.625 2.011719-14.546875 5.339844-2.863281 2.433594-7.152343 2.433594-10.019531 0-3.921875-3.328125-8.996094-5.339844-14.546875-5.339844-5.546875 0-10.621094 2.011719-14.542969 5.339844-2.867187 2.433594-7.15625 2.433594-10.023437 0-3.917969-3.328125-8.992188-5.339844-14.542969-5.339844s-10.625 2.011719-14.546875 5.339844c-2.863281 2.433594-7.152344 2.433594-10.019531 0-3.921875-3.328125-8.996094-5.339844-14.546875-5.339844-5.546875 0-10.621094 2.011719-14.542969 5.34375-2.867188 2.433594-7.15625 2.433594-10.019531 0-3.921875-3.332031-8.996094-5.34375-14.546875-5.34375-5.550782 0-10.621094 2.011719-14.542969 5.339844-2.867187 2.433594-7.15625 2.433594-10.023437 0-3.921876-3.328125-8.996094-5.339844-14.542969-5.339844-5.550781 0-10.625 2.011719-14.546875 5.34375-2.9375 2.492188-7.246094 2.300781-10.210938-.160156-4.605468-3.828125-10.761718-5.851563-17.394531-4.984375-10.117187 1.328125-18.191406 9.570312-19.335937 19.710937-1.53125 13.605469 9.078124 25.132813 22.375 25.132813 5.550781 0 10.625-2.011719 14.546874-5.339844 2.863282-2.4375 7.152344-2.4375 10.019532 0 3.921875 3.328125 8.996094 5.339844 14.546875 5.339844 5.546875 0 10.621093-2.011719 14.542969-5.339844 2.867187-2.4375 7.15625-2.4375 10.023437 0 3.917969 3.328125 8.992187 5.339844 14.542969 5.339844 5.550781 0 10.625-2.011719 14.546875-5.339844 2.863281-2.4375 7.152343-2.4375 10.019531 0 3.921875 3.328125 8.996094 5.339844 14.542969 5.339844 5.550781 0 10.625-2.011719 14.546875-5.339844 2.863281-2.4375 7.15625-2.4375 10.019531 0 3.921875 3.328125 8.996094 5.339844 14.546875 5.339844h.261719c2.171875-.027344 3.957031 1.683593 3.957031 3.855469v15.769531c0 8.523437 6.910156 15.429687 15.4375 15.429687 8.519531 0 15.429688-6.910156 15.429688-15.429687v-15.765625c0-2.179688 1.800781-3.863282 3.980468-3.859375h.042969c5.546875 0 10.625-2.011719 14.542969-5.34375 2.867187-2.433594 7.15625-2.433594 10.023437 0 3.917969 3.332031 8.996094 5.34375 14.542969 5.34375 5.550781 0 10.625-2.011719 14.546875-5.34375 2.863281-2.433594 7.152344-2.433594 10.019531 0 3.921875 3.332031 8.996094 5.34375 14.542969 5.34375 13.300781 0 23.910156-11.527344 22.378906-25.132813zm0 0" fill="#fff"></path><path d="m163.261719 376.628906c-8.082031-4.445312-18.164063-3.554687-25.351563 2.558594-2.867187 2.433594-7.15625 2.433594-10.023437 0-8.386719-7.125-20.695313-7.128906-29.085938-.003906-2.867187 2.433594-7.15625 2.433594-10.023437 0-8.386719-7.121094-20.699219-7.128906-29.089844.003906-2.933594 2.492188-7.246094 2.300781-10.210938-.160156-13.902343-11.550782-34.765624-2.6875-36.726562 14.726562-2.316406 20.582032 21.652344 32.757813 36.917969 19.792969 2.867187-2.4375 7.15625-2.4375 10.019531 0 8.386719 7.125 20.699219 7.128906 29.089844 0 2.867187-2.4375 7.15625-2.4375 10.023437 0 8.386719 7.125 20.695313 7.128906 29.085938 0 2.867187-2.4375 7.15625-2.4375 10.023437 0 7.015625 5.960937 17.0625 7.113281 25.34375 2.554687-15.527344-8.542968-15.617187-30.84375.007813-39.472656zm0 0" fill="#e5e5e5"></path><path d="m292.15625 261.167969c-1.140625-10.136719-9.21875-18.375-19.332031-19.699219-7.003907-.917969-13.476563 1.390625-18.152344 5.640625-2.453125 2.230469-6.550781 2.085937-9.019531-.121094-3.976563-3.554687-9.222656-5.722656-14.976563-5.722656-5.761719 0-11.007812 2.167969-14.984375 5.726563-2.613281 2.339843-6.53125 2.339843-9.144531 0-3.976563-3.558594-9.226563-5.726563-14.984375-5.726563s-11.003906 2.167969-14.984375 5.726563c-2.613281 2.339843-6.527344 2.339843-9.140625 0-3.980469-3.558594-9.226562-5.726563-14.984375-5.726563s-11.007813 2.167969-14.984375 5.726563c-2.613281 2.339843-6.53125 2.339843-9.144531 0-3.976563-3.558594-9.222657-5.722657-14.980469-5.722657s-11 2.164063-14.976562 5.71875c-2.472657 2.207031-6.566407 2.351563-9.019532.121094-4.679687-4.25-11.152344-6.558594-18.15625-5.640625-10.113281 1.324219-18.191406 9.566406-19.332031 19.703125-1.535156 13.609375 9.074219 25.140625 22.375 25.140625 2.746094 0 5.375-.496094 7.804687-1.398438 1.949219-.722656 4.023438.6875 4.023438 2.765626v13.625c0 8.410156 6.417969 15.664062 14.8125 16.132812 5.910156.332031 11.15625-2.613281 14.105469-7.179688.253906-.394531.679687-.644531 1.148437-.644531.753906 0 1.363282.609375 1.363282 1.363281v17.785157c0 8.460937 6.5 15.742187 14.953124 16.140625 9.027344.425781 16.476563-6.765625 16.476563-15.699219v-39.945313c0-1.652343 1.351563-2.992187 3.007813-2.957031.171874.003907.347656.007813.523437.007813 5.761719 0 11.007813-2.164063 14.984375-5.722656 2.613281-2.339844 6.53125-2.339844 9.144531 0 3.976563 3.554687 9.222657 5.722656 14.984375 5.722656 5.757813 0 11.003906-2.164063 14.980469-5.722656 2.613281-2.339844 6.53125-2.339844 9.144531 0 3.980469 3.554687 9.226563 5.722656 14.984375 5.722656 5.757813 0 11.003907-2.164063 14.984375-5.722656 2.613282-2.339844 6.527344-2.339844 9.144532 0 3.976562 3.554687 9.222656 5.722656 14.980468 5.722656 13.300782.003906 23.910156-11.527344 22.371094-25.140625zm0 0" fill="#fff"></path><path d="m161.992188 243.40625c-8.152344-3.832031-17.777344-2.445312-24.523438 3.585938-2.613281 2.339843-6.53125 2.339843-9.144531 0-8.53125-7.632813-21.421875-7.636719-29.960938-.003907-2.46875 2.207031-6.566406 2.351563-9.019531.121094-13.570312-12.332031-35.453125-3.996094-37.484375 14.0625-1.910156 16.964844 14.683594 29.496094 30.179687 23.742187 1.949219-.722656 4.019532.6875 4.019532 2.765626v13.625c0 8.410156 6.417968 15.664062 14.8125 16.132812 5.914062.332031 11.15625-2.613281 14.105468-7.179688.253907-.394531.679688-.644531 1.148438-.644531.753906 0 1.363281.609375 1.363281 1.363281v17.785157c0 8.460937 6.503907 15.742187 14.957031 16.140625 9.023438.425781 16.472657-6.765625 16.472657-15.699219v-39.945313c0-1.652343 1.355469-2.992187 3.007812-2.957031 3.511719.082031 6.917969-.652343 10.0625-2.128906-17.179687-8.085937-17.3125-32.585937.003907-40.765625zm0 0" fill="#e5e5e5"></path><path d="m299.003906 107.382812c3.824219 2.207032 8.726563.90625 10.9375-2.929687 2.210938-3.832031.902344-8.726563-2.929687-10.9375l-11.269531-6.507813 11.269531-6.503906c3.828125-2.214844 5.140625-7.109375 2.929687-10.941406-2.207031-3.828125-7.109375-5.140625-10.9375-2.929688l-11.269531 6.507813v-13.011719c0-4.425781-3.582031-8.007812-8.003906-8.007812-4.425781 0-8.007813 3.582031-8.007813 8.007812v13.011719l-11.269531-6.507813c-3.832031-2.210937-8.726563-.898437-10.9375 2.933594-2.210937 3.828125-.898437 8.722656 2.929687 10.9375l11.269532 6.503906-11.269532 6.507813c-3.828124 2.210937-5.140624 7.105469-2.929687 10.9375 2.21875 3.847656 7.125 5.132813 10.9375 2.929687l11.269531-6.503906v13.011719c0 4.421875 3.582032 8.007813 8.007813 8.007813 4.421875 0 8.003906-3.585938 8.003906-8.007813v-13.011719zm0 0" fill="#c8f0fc"></path><path d="m373.515625 135.667969c-4.941406-1.019531-9.578125 2.839843-9.578125 7.84375 0 4.308593 3.519531 8.007812 8.019531 8.007812 4.503907 0 8.007813-3.691406 8.007813-8.007812 0-3.707031-2.679688-7.140625-6.449219-7.84375zm0 0" fill="#a1e4ff"></path><path d="m46.292969 216.453125h-3.734375v-3.734375c0-4.421875-3.585938-8.007812-8.007813-8.007812s-8.007812 3.585937-8.007812 8.007812v3.734375h-3.734375c-4.421875 0-8.007813 3.585937-8.007813 8.007813 0 4.425781 3.582031 8.007812 8.007813 8.007812h3.734375v3.738281c0 4.421875 3.585937 8.007813 8.007812 8.007813s8.007813-3.585938 8.007813-8.007813v-3.738281h3.734375c4.425781 0 8.007812-3.582031 8.007812-8.007812 0-4.421876-3.585937-8.007813-8.007812-8.007813zm0 0" fill="#c8f0fc"></path><path d="m165.144531 5.210938-57.617187 115.226562c1.320312-.363281 2.683594-.613281 4.082031-.726562 6.390625-.519532 12.269531 1.621093 16.671875 5.425781 2.746094 2.371093 6.773438 2.285156 9.53125-.074219 3.953125-3.382812 9.082031-5.429688 14.695312-5.429688 4.195313 0 8.121094 1.144532 11.484376 3.136719l-.492188-2.621093c-14.097656-68.027344 18.503906-114.9375 18.503906-114.9375-3.472656-6.949219-13.386718-6.949219-16.859375 0zm0 0" fill="#37c47a"></path><path d="m253.050781 137.363281c-1.179687-10.648437-9.96875-19.144531-20.652343-20.007812-6.386719-.515625-12.261719 1.621093-16.664063 5.425781-2.746094 2.371094-6.769531 2.285156-9.527344-.074219-3.953125-3.382812-9.082031-5.429687-14.695312-5.429687s-10.738281 2.042968-14.691407 5.425781c-2.792968 2.386719-6.832031 2.386719-9.621093 0-3.957031-3.382813-9.082031-5.425781-14.691407-5.425781-5.613281 0-10.742187 2.046875-14.695312 5.429687-2.757812 2.355469-6.785156 2.445313-9.53125.074219-4.402344-3.804688-10.28125-5.945312-16.671875-5.425781-10.679687.867187-19.464844 9.367187-20.644531 20.015625-1.515625 13.6875 9.15625 25.269531 22.539062 25.269531 5.609375 0 10.734375-2.042969 14.691406-5.425781 2.789063-2.386719 6.828126-2.386719 9.621094 0 3.953125 3.382812 9.078125 5.425781 14.691406 5.425781 5.609376 0 10.734376-2.042969 14.691407-5.425781 2.789062-2.386719 6.828125-2.386719 9.621093 0 3.953126 3.382812 9.078126 5.425781 14.691407 5.425781.351562 0 .703125-.007813 1.046875-.027344 1.769531-.082031 3.226562 1.378907 3.226562 3.148438v5.988281c0 8.46875 6.507813 15.753906 14.96875 16.152344 9.03125.425781 16.488282-6.769532 16.488282-15.710938v-6.40625c0-1.773437 1.464843-3.148437 3.238281-3.144531h.035156c13.378906 0 24.054687-11.585937 22.535156-25.277344zm0 0" fill="#fff"></path><path d="m163.5 120.148438c-8.253906-4.605469-18.476562-3.609376-25.6875 2.558593-2.757812 2.359375-6.785156 2.445313-9.527344.074219-13.894531-12-35.351562-3.203125-37.320312 14.589844-2.292969 20.738281 21.890625 32.957031 37.230468 19.84375 2.792969-2.386719 6.828126-2.386719 9.621094.003906 7.171875 6.132812 17.382813 7.179688 25.667969 2.5625-15.378906-8.570312-15.710937-30.832031.015625-39.632812zm0 0" fill="#e5e5e5"></path></svg>